ISO-10303-21;
HEADER;
FILE_DESCRIPTION(('Synthetic B-Rep topology fixture'),'2;1');
FILE_NAME('surface_catalog.step','2000-01-01T00:00:00',('research-notes'),('research-notes'),'research-notes','research-notes','');
FILE_SCHEMA(('AUTOMOTIVE_DESIGN'));
ENDSEC;
DATA;
#1=CARTESIAN_POINT('',(0.000000,0.000000,0.000000));
#2=VERTEX_POINT('',#1);
#3=CARTESIAN_POINT('',(1.000000,0.000000,0.000000));
#4=VERTEX_POINT('',#3);
#5=CARTESIAN_POINT('',(0.000000,1.000000,0.000000));
#6=VERTEX_POINT('',#5);
#7=DIRECTION('',(1.000000,0.000000,0.000000));
#8=VECTOR('',#7,1.000000);
#9=LINE('',#1,#8);
#10=EDGE_CURVE('',#2,#4,#9,.T.);
#11=DIRECTION('',(-0.707107,0.707107,0.000000));
#12=VECTOR('',#11,1.414214);
#13=LINE('',#3,#12);
#14=EDGE_CURVE('',#4,#6,#13,.T.);
#15=DIRECTION('',(0.000000,1.000000,0.000000));
#16=VECTOR('',#15,1.000000);
#17=LINE('',#1,#16);
#18=EDGE_CURVE('',#2,#6,#17,.T.);
#19=DIRECTION('',(0.000000,0.000000,1.000000));
#20=DIRECTION('',(1.000000,0.000000,0.000000));
#21=AXIS2_PLACEMENT_3D('',#1,#19,#20);
#22=PLANE('',#21);
#23=ORIENTED_EDGE('',*,*,#10,.T.);
#24=ORIENTED_EDGE('',*,*,#14,.T.);
#25=ORIENTED_EDGE('',*,*,#18,.F.);
#26=EDGE_LOOP('',(#23,#24,#25));
#27=FACE_OUTER_BOUND('',#26,.T.);
#28=ADVANCED_FACE('',(#27),#22,.T.);
#29=CARTESIAN_POINT('',(4.000000,0.000000,0.000000));
#30=VERTEX_POINT('',#29);
#31=CARTESIAN_POINT('',(5.000000,0.000000,0.000000));
#32=VERTEX_POINT('',#31);
#33=CARTESIAN_POINT('',(4.000000,1.000000,0.000000));
#34=VERTEX_POINT('',#33);
#35=DIRECTION('',(1.000000,0.000000,0.000000));
#36=VECTOR('',#35,1.000000);
#37=LINE('',#29,#36);
#38=EDGE_CURVE('',#30,#32,#37,.T.);
#39=DIRECTION('',(-0.707107,0.707107,0.000000));
#40=VECTOR('',#39,1.414214);
#41=LINE('',#31,#40);
#42=EDGE_CURVE('',#32,#34,#41,.T.);
#43=DIRECTION('',(0.000000,1.000000,0.000000));
#44=VECTOR('',#43,1.000000);
#45=LINE('',#29,#44);
#46=EDGE_CURVE('',#30,#34,#45,.T.);
#47=DIRECTION('',(0.000000,0.000000,1.000000));
#48=DIRECTION('',(1.000000,0.000000,0.000000));
#49=AXIS2_PLACEMENT_3D('',#29,#47,#48);
#50=CYLINDRICAL_SURFACE('',#49,2.000000);
#51=ORIENTED_EDGE('',*,*,#38,.T.);
#52=ORIENTED_EDGE('',*,*,#42,.T.);
#53=ORIENTED_EDGE('',*,*,#46,.F.);
#54=EDGE_LOOP('',(#51,#52,#53));
#55=FACE_OUTER_BOUND('',#54,.T.);
#56=ADVANCED_FACE('',(#55),#50,.T.);
#57=CARTESIAN_POINT('',(8.000000,0.000000,0.000000));
#58=VERTEX_POINT('',#57);
#59=CARTESIAN_POINT('',(9.000000,0.000000,0.000000));
#60=VERTEX_POINT('',#59);
#61=CARTESIAN_POINT('',(8.000000,1.000000,0.000000));
#62=VERTEX_POINT('',#61);
#63=DIRECTION('',(1.000000,0.000000,0.000000));
#64=VECTOR('',#63,1.000000);
#65=LINE('',#57,#64);
#66=EDGE_CURVE('',#58,#60,#65,.T.);
#67=DIRECTION('',(-0.707107,0.707107,0.000000));
#68=VECTOR('',#67,1.414214);
#69=LINE('',#59,#68);
#70=EDGE_CURVE('',#60,#62,#69,.T.);
#71=DIRECTION('',(0.000000,1.000000,0.000000));
#72=VECTOR('',#71,1.000000);
#73=LINE('',#57,#72);
#74=EDGE_CURVE('',#58,#62,#73,.T.);
#75=DIRECTION('',(0.000000,0.000000,1.000000));
#76=DIRECTION('',(1.000000,0.000000,0.000000));
#77=AXIS2_PLACEMENT_3D('',#57,#75,#76);
#78=CONICAL_SURFACE('',#77,2.000000,0.500000);
#79=ORIENTED_EDGE('',*,*,#66,.T.);
#80=ORIENTED_EDGE('',*,*,#70,.T.);
#81=ORIENTED_EDGE('',*,*,#74,.F.);
#82=EDGE_LOOP('',(#79,#80,#81));
#83=FACE_OUTER_BOUND('',#82,.T.);
#84=ADVANCED_FACE('',(#83),#78,.T.);
#85=CARTESIAN_POINT('',(12.000000,0.000000,0.000000));
#86=VERTEX_POINT('',#85);
#87=CARTESIAN_POINT('',(13.000000,0.000000,0.000000));
#88=VERTEX_POINT('',#87);
#89=CARTESIAN_POINT('',(12.000000,1.000000,0.000000));
#90=VERTEX_POINT('',#89);
#91=DIRECTION('',(1.000000,0.000000,0.000000));
#92=VECTOR('',#91,1.000000);
#93=LINE('',#85,#92);
#94=EDGE_CURVE('',#86,#88,#93,.T.);
#95=DIRECTION('',(-0.707107,0.707107,0.000000));
#96=VECTOR('',#95,1.414214);
#97=LINE('',#87,#96);
#98=EDGE_CURVE('',#88,#90,#97,.T.);
#99=DIRECTION('',(0.000000,1.000000,0.000000));
#100=VECTOR('',#99,1.000000);
#101=LINE('',#85,#100);
#102=EDGE_CURVE('',#86,#90,#101,.T.);
#103=DIRECTION('',(0.000000,0.000000,1.000000));
#104=DIRECTION('',(1.000000,0.000000,0.000000));
#105=AXIS2_PLACEMENT_3D('',#85,#103,#104);
#106=SPHERICAL_SURFACE('',#105,3.000000);
#107=ORIENTED_EDGE('',*,*,#94,.T.);
#108=ORIENTED_EDGE('',*,*,#98,.T.);
#109=ORIENTED_EDGE('',*,*,#102,.F.);
#110=EDGE_LOOP('',(#107,#108,#109));
#111=FACE_OUTER_BOUND('',#110,.T.);
#112=ADVANCED_FACE('',(#111),#106,.T.);
#113=CARTESIAN_POINT('',(16.000000,0.000000,0.000000));
#114=VERTEX_POINT('',#113);
#115=CARTESIAN_POINT('',(17.000000,0.000000,0.000000));
#116=VERTEX_POINT('',#115);
#117=CARTESIAN_POINT('',(16.000000,1.000000,0.000000));
#118=VERTEX_POINT('',#117);
#119=DIRECTION('',(1.000000,0.000000,0.000000));
#120=VECTOR('',#119,1.000000);
#121=LINE('',#113,#120);
#122=EDGE_CURVE('',#114,#116,#121,.T.);
#123=DIRECTION('',(-0.707107,0.707107,0.000000));
#124=VECTOR('',#123,1.414214);
#125=LINE('',#115,#124);
#126=EDGE_CURVE('',#116,#118,#125,.T.);
#127=DIRECTION('',(0.000000,1.000000,0.000000));
#128=VECTOR('',#127,1.000000);
#129=LINE('',#113,#128);
#130=EDGE_CURVE('',#114,#118,#129,.T.);
#131=DIRECTION('',(0.000000,0.000000,1.000000));
#132=DIRECTION('',(1.000000,0.000000,0.000000));
#133=AXIS2_PLACEMENT_3D('',#113,#131,#132);
#134=TOROIDAL_SURFACE('',#133,4.000000,1.000000);
#135=ORIENTED_EDGE('',*,*,#122,.T.);
#136=ORIENTED_EDGE('',*,*,#126,.T.);
#137=ORIENTED_EDGE('',*,*,#130,.F.);
#138=EDGE_LOOP('',(#135,#136,#137));
#139=FACE_OUTER_BOUND('',#138,.T.);
#140=ADVANCED_FACE('',(#139),#134,.T.);
#141=CARTESIAN_POINT('',(20.000000,0.000000,0.000000));
#142=VERTEX_POINT('',#141);
#143=CARTESIAN_POINT('',(21.000000,0.000000,0.000000));
#144=VERTEX_POINT('',#143);
#145=CARTESIAN_POINT('',(20.000000,1.000000,0.000000));
#146=VERTEX_POINT('',#145);
#147=DIRECTION('',(1.000000,0.000000,0.000000));
#148=VECTOR('',#147,1.000000);
#149=LINE('',#141,#148);
#150=EDGE_CURVE('',#142,#144,#149,.T.);
#151=DIRECTION('',(-0.707107,0.707107,0.000000));
#152=VECTOR('',#151,1.414214);
#153=LINE('',#143,#152);
#154=EDGE_CURVE('',#144,#146,#153,.T.);
#155=DIRECTION('',(0.000000,1.000000,0.000000));
#156=VECTOR('',#155,1.000000);
#157=LINE('',#141,#156);
#158=EDGE_CURVE('',#142,#146,#157,.T.);
#159=CARTESIAN_POINT('',(21.000000,1.000000,0.200000));
#160=VERTEX_POINT('',#159);
#161=B_SPLINE_SURFACE('',1,1,((#141,#143),(#145,#159)),.UNSPECIFIED.,.F.,.F.,.F.);
#162=ORIENTED_EDGE('',*,*,#150,.T.);
#163=ORIENTED_EDGE('',*,*,#154,.T.);
#164=ORIENTED_EDGE('',*,*,#158,.F.);
#165=EDGE_LOOP('',(#162,#163,#164));
#166=FACE_OUTER_BOUND('',#165,.T.);
#167=ADVANCED_FACE('',(#166),#161,.T.);
#168=OPEN_SHELL('surface_catalog',(#28,#56,#84,#112,#140,#167));
ENDSEC;
END-ISO-10303-21;
