ISO-10303-21;
HEADER;
FILE_DESCRIPTION(('Synthetic B-Rep topology fixture'),'2;1');
FILE_NAME('two_closed_solids.step','2000-01-01T00:00:00',('research-notes'),('research-notes'),'research-notes','research-notes','');
FILE_SCHEMA(('AUTOMOTIVE_DESIGN'));
ENDSEC;
DATA;
#1=CARTESIAN_POINT('',(0.000000,0.000000,0.000000));
#2=VERTEX_POINT('',#1);
#3=CARTESIAN_POINT('',(1.000000,0.000000,0.000000));
#4=VERTEX_POINT('',#3);
#5=CARTESIAN_POINT('',(0.000000,1.000000,0.000000));
#6=VERTEX_POINT('',#5);
#7=CARTESIAN_POINT('',(0.000000,0.000000,1.000000));
#8=VERTEX_POINT('',#7);
#9=DIRECTION('',(1.000000,0.000000,0.000000));
#10=VECTOR('',#9,1.000000);
#11=LINE('',#1,#10);
#12=EDGE_CURVE('',#2,#4,#11,.T.);
#13=DIRECTION('',(0.000000,1.000000,0.000000));
#14=VECTOR('',#13,1.000000);
#15=LINE('',#1,#14);
#16=EDGE_CURVE('',#2,#6,#15,.T.);
#17=DIRECTION('',(0.000000,0.000000,1.000000));
#18=VECTOR('',#17,1.000000);
#19=LINE('',#1,#18);
#20=EDGE_CURVE('',#2,#8,#19,.T.);
#21=DIRECTION('',(-0.707107,0.707107,0.000000));
#22=VECTOR('',#21,1.414214);
#23=LINE('',#3,#22);
#24=EDGE_CURVE('',#4,#6,#23,.T.);
#25=DIRECTION('',(-0.707107,0.000000,0.707107));
#26=VECTOR('',#25,1.414214);
#27=LINE('',#3,#26);
#28=EDGE_CURVE('',#4,#8,#27,.T.);
#29=DIRECTION('',(0.000000,-0.707107,0.707107));
#30=VECTOR('',#29,1.414214);
#31=LINE('',#5,#30);
#32=EDGE_CURVE('',#6,#8,#31,.T.);
#33=DIRECTION('',(0.000000,0.000000,-1.000000));
#34=DIRECTION('',(1.000000,0.000000,0.000000));
#35=AXIS2_PLACEMENT_3D('',#1,#33,#34);
#36=PLANE('',#35);
#37=ORIENTED_EDGE('',*,*,#12,.T.);
#38=ORIENTED_EDGE('',*,*,#24,.T.);
#39=ORIENTED_EDGE('',*,*,#16,.F.);
#40=EDGE_LOOP('',(#37,#38,#39));
#41=FACE_OUTER_BOUND('',#40,.T.);
#42=ADVANCED_FACE('',(#41),#36,.T.);
#43=DIRECTION('',(0.000000,-1.000000,0.000000));
#44=DIRECTION('',(1.000000,0.000000,0.000000));
#45=AXIS2_PLACEMENT_3D('',#1,#43,#44);
#46=PLANE('',#45);
#47=ORIENTED_EDGE('',*,*,#12,.T.);
#48=ORIENTED_EDGE('',*,*,#28,.T.);
#49=ORIENTED_EDGE('',*,*,#20,.F.);
#50=EDGE_LOOP('',(#47,#48,#49));
#51=FACE_OUTER_BOUND('',#50,.T.);
#52=ADVANCED_FACE('',(#51),#46,.T.);
#53=DIRECTION('',(-1.000000,0.000000,0.000000));
#54=DIRECTION('',(1.000000,0.000000,0.000000));
#55=AXIS2_PLACEMENT_3D('',#1,#53,#54);
#56=PLANE('',#55);
#57=ORIENTED_EDGE('',*,*,#16,.T.);
#58=ORIENTED_EDGE('',*,*,#32,.T.);
#59=ORIENTED_EDGE('',*,*,#20,.F.);
#60=EDGE_LOOP('',(#57,#58,#59));
#61=FACE_OUTER_BOUND('',#60,.T.);
#62=ADVANCED_FACE('',(#61),#56,.T.);
#63=DIRECTION('',(0.577350,0.577350,0.577350));
#64=DIRECTION('',(1.000000,0.000000,0.000000));
#65=AXIS2_PLACEMENT_3D('',#3,#63,#64);
#66=PLANE('',#65);
#67=ORIENTED_EDGE('',*,*,#24,.T.);
#68=ORIENTED_EDGE('',*,*,#32,.T.);
#69=ORIENTED_EDGE('',*,*,#28,.F.);
#70=EDGE_LOOP('',(#67,#68,#69));
#71=FACE_OUTER_BOUND('',#70,.T.);
#72=ADVANCED_FACE('',(#71),#66,.T.);
#73=CLOSED_SHELL('tetrahedron_a',(#42,#52,#62,#72));
#74=MANIFOLD_SOLID_BREP('tetrahedron_a',#73);
#75=CARTESIAN_POINT('',(3.000000,0.000000,0.000000));
#76=VERTEX_POINT('',#75);
#77=CARTESIAN_POINT('',(4.000000,0.000000,0.000000));
#78=VERTEX_POINT('',#77);
#79=CARTESIAN_POINT('',(3.000000,1.000000,0.000000));
#80=VERTEX_POINT('',#79);
#81=CARTESIAN_POINT('',(3.000000,0.000000,1.000000));
#82=VERTEX_POINT('',#81);
#83=DIRECTION('',(1.000000,0.000000,0.000000));
#84=VECTOR('',#83,1.000000);
#85=LINE('',#75,#84);
#86=EDGE_CURVE('',#76,#78,#85,.T.);
#87=DIRECTION('',(0.000000,1.000000,0.000000));
#88=VECTOR('',#87,1.000000);
#89=LINE('',#75,#88);
#90=EDGE_CURVE('',#76,#80,#89,.T.);
#91=DIRECTION('',(0.000000,0.000000,1.000000));
#92=VECTOR('',#91,1.000000);
#93=LINE('',#75,#92);
#94=EDGE_CURVE('',#76,#82,#93,.T.);
#95=DIRECTION('',(-0.707107,0.707107,0.000000));
#96=VECTOR('',#95,1.414214);
#97=LINE('',#77,#96);
#98=EDGE_CURVE('',#78,#80,#97,.T.);
#99=DIRECTION('',(-0.707107,0.000000,0.707107));
#100=VECTOR('',#99,1.414214);
#101=LINE('',#77,#100);
#102=EDGE_CURVE('',#78,#82,#101,.T.);
#103=DIRECTION('',(0.000000,-0.707107,0.707107));
#104=VECTOR('',#103,1.414214);
#105=LINE('',#79,#104);
#106=EDGE_CURVE('',#80,#82,#105,.T.);
#107=DIRECTION('',(0.000000,0.000000,-1.000000));
#108=DIRECTION('',(1.000000,0.000000,0.000000));
#109=AXIS2_PLACEMENT_3D('',#75,#107,#108);
#110=PLANE('',#109);
#111=ORIENTED_EDGE('',*,*,#86,.T.);
#112=ORIENTED_EDGE('',*,*,#98,.T.);
#113=ORIENTED_EDGE('',*,*,#90,.F.);
#114=EDGE_LOOP('',(#111,#112,#113));
#115=FACE_OUTER_BOUND('',#114,.T.);
#116=ADVANCED_FACE('',(#115),#110,.T.);
#117=DIRECTION('',(0.000000,-1.000000,0.000000));
#118=DIRECTION('',(1.000000,0.000000,0.000000));
#119=AXIS2_PLACEMENT_3D('',#75,#117,#118);
#120=PLANE('',#119);
#121=ORIENTED_EDGE('',*,*,#86,.T.);
#122=ORIENTED_EDGE('',*,*,#102,.T.);
#123=ORIENTED_EDGE('',*,*,#94,.F.);
#124=EDGE_LOOP('',(#121,#122,#123));
#125=FACE_OUTER_BOUND('',#124,.T.);
#126=ADVANCED_FACE('',(#125),#120,.T.);
#127=DIRECTION('',(-1.000000,0.000000,0.000000));
#128=DIRECTION('',(1.000000,0.000000,0.000000));
#129=AXIS2_PLACEMENT_3D('',#75,#127,#128);
#130=PLANE('',#129);
#131=ORIENTED_EDGE('',*,*,#90,.T.);
#132=ORIENTED_EDGE('',*,*,#106,.T.);
#133=ORIENTED_EDGE('',*,*,#94,.F.);
#134=EDGE_LOOP('',(#131,#132,#133));
#135=FACE_OUTER_BOUND('',#134,.T.);
#136=ADVANCED_FACE('',(#135),#130,.T.);
#137=DIRECTION('',(0.577350,0.577350,0.577350));
#138=DIRECTION('',(1.000000,0.000000,0.000000));
#139=AXIS2_PLACEMENT_3D('',#77,#137,#138);
#140=PLANE('',#139);
#141=ORIENTED_EDGE('',*,*,#98,.T.);
#142=ORIENTED_EDGE('',*,*,#106,.T.);
#143=ORIENTED_EDGE('',*,*,#102,.F.);
#144=EDGE_LOOP('',(#141,#142,#143));
#145=FACE_OUTER_BOUND('',#144,.T.);
#146=ADVANCED_FACE('',(#145),#140,.T.);
#147=CLOSED_SHELL('tetrahedron_b',(#116,#126,#136,#146));
#148=MANIFOLD_SOLID_BREP('tetrahedron_b',#147);
ENDSEC;
END-ISO-10303-21;
