ISO-10303-21;
HEADER;
FILE_DESCRIPTION(('Open CASCADE Model'),'2;1');
FILE_NAME('Open CASCADE Shape Model','2000-01-01T00:00:00',('Author'),(
    'Open CASCADE'),'Open CASCADE STEP processor 7.9','Open CASCADE 7.9'
  ,'Unknown');
FILE_SCHEMA(('AUTOMOTIVE_DESIGN { 1 0 10303 214 1 1 1 1 }'));
ENDSEC;
DATA;
#1 = APPLICATION_PROTOCOL_DEFINITION('international standard',
  'automotive_design',2000,#2);
#2 = APPLICATION_CONTEXT(
  'core data for automotive mechanical design processes');
#3 = SHAPE_DEFINITION_REPRESENTATION(#4,#10);
#4 = PRODUCT_DEFINITION_SHAPE('','',#5);
#5 = PRODUCT_DEFINITION('design','',#6,#9);
#6 = PRODUCT_DEFINITION_FORMATION('','',#7);
#7 = PRODUCT('Open CASCADE STEP translator 7.9 1',
  'Open CASCADE STEP translator 7.9 1','',(#8));
#8 = PRODUCT_CONTEXT('',#2,'mechanical');
#9 = PRODUCT_DEFINITION_CONTEXT('part definition',#2,'design');
#10 = ADVANCED_BREP_SHAPE_REPRESENTATION('',(#11,#15),#1408);
#11 = AXIS2_PLACEMENT_3D('',#12,#13,#14);
#12 = CARTESIAN_POINT('',(0.,0.,0.));
#13 = DIRECTION('',(0.,0.,1.));
#14 = DIRECTION('',(1.,0.,-0.));
#15 = MANIFOLD_SOLID_BREP('',#16);
#16 = CLOSED_SHELL('',(#17,#135,#713,#762,#1295,#1322,#1347,#1374,#1381)
  );
#17 = ADVANCED_FACE('',(#18),#32,.F.);
#18 = FACE_BOUND('',#19,.F.);
#19 = EDGE_LOOP('',(#20,#55,#81,#109));
#20 = ORIENTED_EDGE('',*,*,#21,.F.);
#21 = EDGE_CURVE('',#22,#24,#26,.T.);
#22 = VERTEX_POINT('',#23);
#23 = CARTESIAN_POINT('',(0.,2.,4.));
#24 = VERTEX_POINT('',#25);
#25 = CARTESIAN_POINT('',(0.,10.,4.));
#26 = SURFACE_CURVE('',#27,(#31,#43),.PCURVE_S1.);
#27 = LINE('',#28,#29);
#28 = CARTESIAN_POINT('',(0.,0.,4.));
#29 = VECTOR('',#30,1.);
#30 = DIRECTION('',(-0.,1.,0.));
#31 = PCURVE('',#32,#37);
#32 = PLANE('',#33);
#33 = AXIS2_PLACEMENT_3D('',#34,#35,#36);
#34 = CARTESIAN_POINT('',(0.,0.,0.));
#35 = DIRECTION('',(1.,0.,-0.));
#36 = DIRECTION('',(0.,0.,1.));
#37 = DEFINITIONAL_REPRESENTATION('',(#38),#42);
#38 = LINE('',#39,#40);
#39 = CARTESIAN_POINT('',(4.,0.));
#40 = VECTOR('',#41,1.);
#41 = DIRECTION('',(0.,-1.));
#42 = ( GEOMETRIC_REPRESENTATION_CONTEXT(2) 
PARAMETRIC_REPRESENTATION_CONTEXT() REPRESENTATION_CONTEXT('2D SPACE',''
  ) );
#43 = PCURVE('',#44,#49);
#44 = PLANE('',#45);
#45 = AXIS2_PLACEMENT_3D('',#46,#47,#48);
#46 = CARTESIAN_POINT('',(0.,0.,4.));
#47 = DIRECTION('',(0.,0.,1.));
#48 = DIRECTION('',(1.,0.,-0.));
#49 = DEFINITIONAL_REPRESENTATION('',(#50),#54);
#50 = LINE('',#51,#52);
#51 = CARTESIAN_POINT('',(0.,0.));
#52 = VECTOR('',#53,1.);
#53 = DIRECTION('',(0.,1.));
#54 = ( GEOMETRIC_REPRESENTATION_CONTEXT(2) 
PARAMETRIC_REPRESENTATION_CONTEXT() REPRESENTATION_CONTEXT('2D SPACE',''
  ) );
#55 = ORIENTED_EDGE('',*,*,#56,.F.);
#56 = EDGE_CURVE('',#57,#22,#59,.T.);
#57 = VERTEX_POINT('',#58);
#58 = CARTESIAN_POINT('',(0.,2.,0.));
#59 = SURFACE_CURVE('',#60,(#64,#70),.PCURVE_S1.);
#60 = LINE('',#61,#62);
#61 = CARTESIAN_POINT('',(0.,2.,-0.5));
#62 = VECTOR('',#63,1.);
#63 = DIRECTION('',(0.,0.,1.));
#64 = PCURVE('',#32,#65);
#65 = DEFINITIONAL_REPRESENTATION('',(#66),#69);
#66 = B_SPLINE_CURVE_WITH_KNOTS('',1,(#67,#68),.UNSPECIFIED.,.F.,.F.,(2,
    2),(0.5,4.5),.PIECEWISE_BEZIER_KNOTS.);
#67 = CARTESIAN_POINT('',(0.,-2.));
#68 = CARTESIAN_POINT('',(4.,-2.));
#69 = ( GEOMETRIC_REPRESENTATION_CONTEXT(2) 
PARAMETRIC_REPRESENTATION_CONTEXT() REPRESENTATION_CONTEXT('2D SPACE',''
  ) );
#70 = PCURVE('',#71,#76);
#71 = PLANE('',#72);
#72 = AXIS2_PLACEMENT_3D('',#73,#74,#75);
#73 = CARTESIAN_POINT('',(-1.,2.,-1.));
#74 = DIRECTION('',(-0.,1.,0.));
#75 = DIRECTION('',(0.,0.,1.));
#76 = DEFINITIONAL_REPRESENTATION('',(#77),#80);
#77 = B_SPLINE_CURVE_WITH_KNOTS('',1,(#78,#79),.UNSPECIFIED.,.F.,.F.,(2,
    2),(0.5,4.5),.PIECEWISE_BEZIER_KNOTS.);
#78 = CARTESIAN_POINT('',(1.,1.));
#79 = CARTESIAN_POINT('',(5.,1.));
#80 = ( GEOMETRIC_REPRESENTATION_CONTEXT(2) 
PARAMETRIC_REPRESENTATION_CONTEXT() REPRESENTATION_CONTEXT('2D SPACE',''
  ) );
#81 = ORIENTED_EDGE('',*,*,#82,.T.);
#82 = EDGE_CURVE('',#57,#83,#85,.T.);
#83 = VERTEX_POINT('',#84);
#84 = CARTESIAN_POINT('',(0.,10.,0.));
#85 = SURFACE_CURVE('',#86,(#90,#97),.PCURVE_S1.);
#86 = LINE('',#87,#88);
#87 = CARTESIAN_POINT('',(0.,0.,0.));
#88 = VECTOR('',#89,1.);
#89 = DIRECTION('',(-0.,1.,0.));
#90 = PCURVE('',#32,#91);
#91 = DEFINITIONAL_REPRESENTATION('',(#92),#96);
#92 = LINE('',#93,#94);
#93 = CARTESIAN_POINT('',(0.,0.));
#94 = VECTOR('',#95,1.);
#95 = DIRECTION('',(0.,-1.));
#96 = ( GEOMETRIC_REPRESENTATION_CONTEXT(2) 
PARAMETRIC_REPRESENTATION_CONTEXT() REPRESENTATION_CONTEXT('2D SPACE',''
  ) );
#97 = PCURVE('',#98,#103);
#98 = PLANE('',#99);
#99 = AXIS2_PLACEMENT_3D('',#100,#101,#102);
#100 = CARTESIAN_POINT('',(0.,0.,0.));
#101 = DIRECTION('',(0.,0.,1.));
#102 = DIRECTION('',(1.,0.,-0.));
#103 = DEFINITIONAL_REPRESENTATION('',(#104),#108);
#104 = LINE('',#105,#106);
#105 = CARTESIAN_POINT('',(0.,0.));
#106 = VECTOR('',#107,1.);
#107 = DIRECTION('',(0.,1.));
#108 = ( GEOMETRIC_REPRESENTATION_CONTEXT(2) 
PARAMETRIC_REPRESENTATION_CONTEXT() REPRESENTATION_CONTEXT('2D SPACE',''
  ) );
#109 = ORIENTED_EDGE('',*,*,#110,.T.);
#110 = EDGE_CURVE('',#83,#24,#111,.T.);
#111 = SURFACE_CURVE('',#112,(#116,#123),.PCURVE_S1.);
#112 = LINE('',#113,#114);
#113 = CARTESIAN_POINT('',(0.,10.,0.));
#114 = VECTOR('',#115,1.);
#115 = DIRECTION('',(0.,0.,1.));
#116 = PCURVE('',#32,#117);
#117 = DEFINITIONAL_REPRESENTATION('',(#118),#122);
#118 = LINE('',#119,#120);
#119 = CARTESIAN_POINT('',(0.,-10.));
#120 = VECTOR('',#121,1.);
#121 = DIRECTION('',(1.,0.));
#122 = ( GEOMETRIC_REPRESENTATION_CONTEXT(2) 
PARAMETRIC_REPRESENTATION_CONTEXT() REPRESENTATION_CONTEXT('2D SPACE',''
  ) );
#123 = PCURVE('',#124,#129);
#124 = PLANE('',#125);
#125 = AXIS2_PLACEMENT_3D('',#126,#127,#128);
#126 = CARTESIAN_POINT('',(0.,10.,0.));
#127 = DIRECTION('',(-0.,1.,0.));
#128 = DIRECTION('',(0.,0.,1.));
#129 = DEFINITIONAL_REPRESENTATION('',(#130),#134);
#130 = LINE('',#131,#132);
#131 = CARTESIAN_POINT('',(0.,0.));
#132 = VECTOR('',#133,1.);
#133 = DIRECTION('',(1.,0.));
#134 = ( GEOMETRIC_REPRESENTATION_CONTEXT(2) 
PARAMETRIC_REPRESENTATION_CONTEXT() REPRESENTATION_CONTEXT('2D SPACE',''
  ) );
#135 = ADVANCED_FACE('',(#136,#263),#44,.T.);
#136 = FACE_BOUND('',#137,.T.);
#137 = EDGE_LOOP('',(#138,#139,#160,#186,#214,#242));
#138 = ORIENTED_EDGE('',*,*,#21,.F.);
#139 = ORIENTED_EDGE('',*,*,#140,.F.);
#140 = EDGE_CURVE('',#141,#22,#143,.T.);
#141 = VERTEX_POINT('',#142);
#142 = CARTESIAN_POINT('',(2.,2.,4.));
#143 = SURFACE_CURVE('',#144,(#148,#154),.PCURVE_S1.);
#144 = LINE('',#145,#146);
#145 = CARTESIAN_POINT('',(-0.5,2.,4.));
#146 = VECTOR('',#147,1.);
#147 = DIRECTION('',(-1.,-0.,0.));
#148 = PCURVE('',#44,#149);
#149 = DEFINITIONAL_REPRESENTATION('',(#150),#153);
#150 = B_SPLINE_CURVE_WITH_KNOTS('',1,(#151,#152),.UNSPECIFIED.,.F.,.F.,
  (2,2),(-2.5,-0.5),.PIECEWISE_BEZIER_KNOTS.);
#151 = CARTESIAN_POINT('',(2.,2.));
#152 = CARTESIAN_POINT('',(0.,2.));
#153 = ( GEOMETRIC_REPRESENTATION_CONTEXT(2) 
PARAMETRIC_REPRESENTATION_CONTEXT() REPRESENTATION_CONTEXT('2D SPACE',''
  ) );
#154 = PCURVE('',#71,#155);
#155 = DEFINITIONAL_REPRESENTATION('',(#156),#159);
#156 = B_SPLINE_CURVE_WITH_KNOTS('',1,(#157,#158),.UNSPECIFIED.,.F.,.F.,
  (2,2),(-2.5,-0.5),.PIECEWISE_BEZIER_KNOTS.);
#157 = CARTESIAN_POINT('',(5.,3.));
#158 = CARTESIAN_POINT('',(5.,1.));
#159 = ( GEOMETRIC_REPRESENTATION_CONTEXT(2) 
PARAMETRIC_REPRESENTATION_CONTEXT() REPRESENTATION_CONTEXT('2D SPACE',''
  ) );
#160 = ORIENTED_EDGE('',*,*,#161,.F.);
#161 = EDGE_CURVE('',#162,#141,#164,.T.);
#162 = VERTEX_POINT('',#163);
#163 = CARTESIAN_POINT('',(2.,0.,4.));
#164 = SURFACE_CURVE('',#165,(#169,#175),.PCURVE_S1.);
#165 = LINE('',#166,#167);
#166 = CARTESIAN_POINT('',(2.,-0.5,4.));
#167 = VECTOR('',#168,1.);
#168 = DIRECTION('',(-0.,1.,0.));
#169 = PCURVE('',#44,#170);
#170 = DEFINITIONAL_REPRESENTATION('',(#171),#174);
#171 = B_SPLINE_CURVE_WITH_KNOTS('',1,(#172,#173),.UNSPECIFIED.,.F.,.F.,
  (2,2),(0.5,2.5),.PIECEWISE_BEZIER_KNOTS.);
#172 = CARTESIAN_POINT('',(2.,0.));
#173 = CARTESIAN_POINT('',(2.,2.));
#174 = ( GEOMETRIC_REPRESENTATION_CONTEXT(2) 
PARAMETRIC_REPRESENTATION_CONTEXT() REPRESENTATION_CONTEXT('2D SPACE',''
  ) );
#175 = PCURVE('',#176,#181);
#176 = PLANE('',#177);
#177 = AXIS2_PLACEMENT_3D('',#178,#179,#180);
#178 = CARTESIAN_POINT('',(2.,-1.,-1.));
#179 = DIRECTION('',(1.,0.,-0.));
#180 = DIRECTION('',(0.,0.,1.));
#181 = DEFINITIONAL_REPRESENTATION('',(#182),#185);
#182 = B_SPLINE_CURVE_WITH_KNOTS('',1,(#183,#184),.UNSPECIFIED.,.F.,.F.,
  (2,2),(0.5,2.5),.PIECEWISE_BEZIER_KNOTS.);
#183 = CARTESIAN_POINT('',(5.,-1.));
#184 = CARTESIAN_POINT('',(5.,-3.));
#185 = ( GEOMETRIC_REPRESENTATION_CONTEXT(2) 
PARAMETRIC_REPRESENTATION_CONTEXT() REPRESENTATION_CONTEXT('2D SPACE',''
  ) );
#186 = ORIENTED_EDGE('',*,*,#187,.T.);
#187 = EDGE_CURVE('',#162,#188,#190,.T.);
#188 = VERTEX_POINT('',#189);
#189 = CARTESIAN_POINT('',(14.,0.,4.));
#190 = SURFACE_CURVE('',#191,(#195,#202),.PCURVE_S1.);
#191 = LINE('',#192,#193);
#192 = CARTESIAN_POINT('',(0.,0.,4.));
#193 = VECTOR('',#194,1.);
#194 = DIRECTION('',(1.,0.,-0.));
#195 = PCURVE('',#44,#196);
#196 = DEFINITIONAL_REPRESENTATION('',(#197),#201);
#197 = LINE('',#198,#199);
#198 = CARTESIAN_POINT('',(0.,0.));
#199 = VECTOR('',#200,1.);
#200 = DIRECTION('',(1.,0.));
#201 = ( GEOMETRIC_REPRESENTATION_CONTEXT(2) 
PARAMETRIC_REPRESENTATION_CONTEXT() REPRESENTATION_CONTEXT('2D SPACE',''
  ) );
#202 = PCURVE('',#203,#208);
#203 = PLANE('',#204);
#204 = AXIS2_PLACEMENT_3D('',#205,#206,#207);
#205 = CARTESIAN_POINT('',(0.,0.,0.));
#206 = DIRECTION('',(-0.,1.,0.));
#207 = DIRECTION('',(0.,0.,1.));
#208 = DEFINITIONAL_REPRESENTATION('',(#209),#213);
#209 = LINE('',#210,#211);
#210 = CARTESIAN_POINT('',(4.,0.));
#211 = VECTOR('',#212,1.);
#212 = DIRECTION('',(0.,1.));
#213 = ( GEOMETRIC_REPRESENTATION_CONTEXT(2) 
PARAMETRIC_REPRESENTATION_CONTEXT() REPRESENTATION_CONTEXT('2D SPACE',''
  ) );
#214 = ORIENTED_EDGE('',*,*,#215,.T.);
#215 = EDGE_CURVE('',#188,#216,#218,.T.);
#216 = VERTEX_POINT('',#217);
#217 = CARTESIAN_POINT('',(14.,10.,4.));
#218 = SURFACE_CURVE('',#219,(#223,#230),.PCURVE_S1.);
#219 = LINE('',#220,#221);
#220 = CARTESIAN_POINT('',(14.,0.,4.));
#221 = VECTOR('',#222,1.);
#222 = DIRECTION('',(-0.,1.,0.));
#223 = PCURVE('',#44,#224);
#224 = DEFINITIONAL_REPRESENTATION('',(#225),#229);
#225 = LINE('',#226,#227);
#226 = CARTESIAN_POINT('',(14.,0.));
#227 = VECTOR('',#228,1.);
#228 = DIRECTION('',(0.,1.));
#229 = ( GEOMETRIC_REPRESENTATION_CONTEXT(2) 
PARAMETRIC_REPRESENTATION_CONTEXT() REPRESENTATION_CONTEXT('2D SPACE',''
  ) );
#230 = PCURVE('',#231,#236);
#231 = PLANE('',#232);
#232 = AXIS2_PLACEMENT_3D('',#233,#234,#235);
#233 = CARTESIAN_POINT('',(14.,0.,0.));
#234 = DIRECTION('',(1.,0.,-0.));
#235 = DIRECTION('',(0.,0.,1.));
#236 = DEFINITIONAL_REPRESENTATION('',(#237),#241);
#237 = LINE('',#238,#239);
#238 = CARTESIAN_POINT('',(4.,0.));
#239 = VECTOR('',#240,1.);
#240 = DIRECTION('',(0.,-1.));
#241 = ( GEOMETRIC_REPRESENTATION_CONTEXT(2) 
PARAMETRIC_REPRESENTATION_CONTEXT() REPRESENTATION_CONTEXT('2D SPACE',''
  ) );
#242 = ORIENTED_EDGE('',*,*,#243,.F.);
#243 = EDGE_CURVE('',#24,#216,#244,.T.);
#244 = SURFACE_CURVE('',#245,(#249,#256),.PCURVE_S1.);
#245 = LINE('',#246,#247);
#246 = CARTESIAN_POINT('',(0.,10.,4.));
#247 = VECTOR('',#248,1.);
#248 = DIRECTION('',(1.,0.,-0.));
#249 = PCURVE('',#44,#250);
#250 = DEFINITIONAL_REPRESENTATION('',(#251),#255);
#251 = LINE('',#252,#253);
#252 = CARTESIAN_POINT('',(0.,10.));
#253 = VECTOR('',#254,1.);
#254 = DIRECTION('',(1.,0.));
#255 = ( GEOMETRIC_REPRESENTATION_CONTEXT(2) 
PARAMETRIC_REPRESENTATION_CONTEXT() REPRESENTATION_CONTEXT('2D SPACE',''
  ) );
#256 = PCURVE('',#124,#257);
#257 = DEFINITIONAL_REPRESENTATION('',(#258),#262);
#258 = LINE('',#259,#260);
#259 = CARTESIAN_POINT('',(4.,0.));
#260 = VECTOR('',#261,1.);
#261 = DIRECTION('',(0.,1.));
#262 = ( GEOMETRIC_REPRESENTATION_CONTEXT(2) 
PARAMETRIC_REPRESENTATION_CONTEXT() REPRESENTATION_CONTEXT('2D SPACE',''
  ) );
#263 = FACE_BOUND('',#264,.T.);
#264 = EDGE_LOOP('',(#265));
#265 = ORIENTED_EDGE('',*,*,#266,.T.);
#266 = EDGE_CURVE('',#267,#267,#269,.T.);
#267 = VERTEX_POINT('',#268);
#268 = CARTESIAN_POINT('',(10.,5.,4.));
#269 = SURFACE_CURVE('',#270,(#413,#559),.PCURVE_S1.);
#270 = B_SPLINE_CURVE_WITH_KNOTS('',8,(#271,#272,#273,#274,#275,#276,
    #277,#278,#279,#280,#281,#282,#283,#284,#285,#286,#287,#288,#289,
    #290,#291,#292,#293,#294,#295,#296,#297,#298,#299,#300,#301,#302,
    #303,#304,#305,#306,#307,#308,#309,#310,#311,#312,#313,#314,#315,
    #316,#317,#318,#319,#320,#321,#322,#323,#324,#325,#326,#327,#328,
    #329,#330,#331,#332,#333,#334,#335,#336,#337,#338,#339,#340,#341,
    #342,#343,#344,#345,#346,#347,#348,#349,#350,#351,#352,#353,#354,
    #355,#356,#357,#358,#359,#360,#361,#362,#363,#364,#365,#366,#367,
    #368,#369,#370,#371,#372,#373,#374,#375,#376,#377,#378,#379,#380,
    #381,#382,#383,#384,#385,#386,#387,#388,#389,#390,#391,#392,#393,
    #394,#395,#396,#397,#398,#399,#400,#401,#402,#403,#404,#405,#406,
    #407,#408,#409,#410,#411,#412),.UNSPECIFIED.,.T.,.F.,(9,7,7,7,7,7,7,
    7,7,7,7,7,7,7,7,7,7,7,7,7,9),(0.,2.150805947797E-02,
    3.662939820139E-02,6.214184607609E-02,0.145755807884,0.250032811651,
    0.338458491989,0.41566816294,0.468413104703,0.487380186088,
    0.500038847227,0.513933804524,0.536666423765,0.562174803003,
    0.645775430346,0.750035804377,0.838447382894,0.915644740714,
    0.968381270896,0.981075624668,1.),.UNSPECIFIED.);
#271 = CARTESIAN_POINT('',(10.,5.,4.));
#272 = CARTESIAN_POINT('',(10.,4.971657616206,4.));
#273 = CARTESIAN_POINT('',(9.997245870258,4.943305483135,4.));
#274 = CARTESIAN_POINT('',(9.991734236317,4.915141611305,4.));
#275 = CARTESIAN_POINT('',(9.983555530785,4.887330069626,4.));
#276 = CARTESIAN_POINT('',(9.972864572075,4.860003759001,4.));
#277 = CARTESIAN_POINT('',(9.959855999723,4.833267214872,4.));
#278 = CARTESIAN_POINT('',(9.944744566286,4.807199438734,4.));
#279 = CARTESIAN_POINT('',(9.915802379888,4.764039472446,4.));
#280 = CARTESIAN_POINT('',(9.902918332208,4.746572618162,4.));
#281 = CARTESIAN_POINT('',(9.889167972647,4.729467990444,4.));
#282 = CARTESIAN_POINT('',(9.874619061089,4.712732226087,4.));
#283 = CARTESIAN_POINT('',(9.859336019884,4.696367440924,4.));
#284 = CARTESIAN_POINT('',(9.843378666293,4.680371866741,4.));
#285 = CARTESIAN_POINT('',(9.826800944936,4.664740488209,4.));
#286 = CARTESIAN_POINT('',(9.780712324425,4.623694300685,4.));
#287 = CARTESIAN_POINT('',(9.750152712304,4.598946597125,4.));
#288 = CARTESIAN_POINT('',(9.718192532401,4.575179415372,4.));
#289 = CARTESIAN_POINT('',(9.685022445304,4.552348917528,4.));
#290 = CARTESIAN_POINT('',(9.650803210978,4.530410505726,4.));
#291 = CARTESIAN_POINT('',(9.615666836063,4.509318746284,4.));
#292 = CARTESIAN_POINT('',(9.579717721185,4.489027293876,4.));
#293 = CARTESIAN_POINT('',(9.422806721079,4.405453816913,4.));
#294 = CARTESIAN_POINT('',(9.295027345092,4.349687965374,4.));
#295 = CARTESIAN_POINT('',(9.162327184649,4.300375798841,4.));
#296 = CARTESIAN_POINT('',(9.02612165674,4.256742383494,4.));
#297 = CARTESIAN_POINT('',(8.887525777585,4.218027689995,4.));
#298 = CARTESIAN_POINT('',(8.747124747374,4.183739706078,4.));
#299 = CARTESIAN_POINT('',(8.605219896396,4.153421215104,4.));
#300 = CARTESIAN_POINT('',(8.282826053145,4.093459691971,4.));
#301 = CARTESIAN_POINT('',(8.102018550072,4.065935736041,4.));
#302 = CARTESIAN_POINT('',(7.919858701522,4.043561469252,4.));
#303 = CARTESIAN_POINT('',(7.736736787282,4.025980815726,4.));
#304 = CARTESIAN_POINT('',(7.552964612287,4.012953491619,4.));
#305 = CARTESIAN_POINT('',(7.368794052976,4.004318574621,4.));
#306 = CARTESIAN_POINT('',(7.184420546719,4.,4.));
#307 = CARTESIAN_POINT('',(6.843613532007,4.,4.));
#308 = CARTESIAN_POINT('',(6.687244257211,4.00310590007,4.));
#309 = CARTESIAN_POINT('',(6.53099936597,4.009315293001,4.));
#310 = CARTESIAN_POINT('',(6.375004858028,4.018670767816,4.));
#311 = CARTESIAN_POINT('',(6.219406356503,4.031251935509,4.));
#312 = CARTESIAN_POINT('',(6.064374160846,4.047180328124,4.));
#313 = CARTESIAN_POINT('',(5.91011253875,4.06663717116,4.));
#314 = CARTESIAN_POINT('',(5.623071012313,4.110200962308,4.));
#315 = CARTESIAN_POINT('',(5.49015444775,4.133388619956,4.));
#316 = CARTESIAN_POINT('',(5.358202615632,4.15964802166,4.));
#317 = CARTESIAN_POINT('',(5.227404571572,4.189210815598,4.));
#318 = CARTESIAN_POINT('',(5.098095802597,4.222387085073,4.));
#319 = CARTESIAN_POINT('',(4.970751485073,4.259552293749,4.));
#320 = CARTESIAN_POINT('',(4.846024265118,4.301198663008,4.));
#321 = CARTESIAN_POINT('',(4.642179275503,4.380251684633,4.));
#322 = CARTESIAN_POINT('',(4.561407798379,4.414714264891,4.));
#323 = CARTESIAN_POINT('',(4.482661005376,4.451886274894,4.));
#324 = CARTESIAN_POINT('',(4.406356145005,4.492119345924,4.));
#325 = CARTESIAN_POINT('',(4.333248639872,4.535762755686,4.));
#326 = CARTESIAN_POINT('',(4.264500933212,4.583190517364,4.));
#327 = CARTESIAN_POINT('',(4.201635549728,4.634758755706,4.));
#328 = CARTESIAN_POINT('',(4.127122537313,4.711201246245,4.));
#329 = CARTESIAN_POINT('',(4.108480776925,4.731997076913,4.));
#330 = CARTESIAN_POINT('',(4.091016447153,4.75337755882,4.));
#331 = CARTESIAN_POINT('',(4.07485654946,4.775339130713,4.));
#332 = CARTESIAN_POINT('',(4.060140492863,4.797865912057,4.));
#333 = CARTESIAN_POINT('',(4.047013605246,4.820927197487,4.));
#334 = CARTESIAN_POINT('',(4.035617472684,4.844474142578,4.));
#335 = CARTESIAN_POINT('',(4.019709850991,4.884427584083,4.));
#336 = CARTESIAN_POINT('',(4.014169092071,4.900604419014,4.));
#337 = CARTESIAN_POINT('',(4.009493163013,4.91694188038,4.));
#338 = CARTESIAN_POINT('',(4.005715362797,4.933413027839,4.));
#339 = CARTESIAN_POINT('',(4.002862612828,4.949988209486,4.));
#340 = CARTESIAN_POINT('',(4.000954113374,4.966635025329,4.));
#341 = CARTESIAN_POINT('',(4.,4.983318290756,4.));
#342 = CARTESIAN_POINT('',(4.,5.018310912588,4.));
#343 = CARTESIAN_POINT('',(4.001149594517,5.03662410442,4.));
#344 = CARTESIAN_POINT('',(4.003449189105,5.054888795282,4.));
#345 = CARTESIAN_POINT('',(4.006883965589,5.073058615112,4.));
#346 = CARTESIAN_POINT('',(4.011426131128,5.091091508365,4.));
#347 = CARTESIAN_POINT('',(4.017037167289,5.108949638374,4.));
#348 = CARTESIAN_POINT('',(4.023670079115,5.126599291711,4.));
#349 = CARTESIAN_POINT('',(4.043708061292,5.172496569392,4.));
#350 = CARTESIAN_POINT('',(4.058735854424,5.200341622052,4.));
#351 = CARTESIAN_POINT('',(4.076130849381,5.227441932051,4.));
#352 = CARTESIAN_POINT('',(4.09564526152,5.25373446206,4.));
#353 = CARTESIAN_POINT('',(4.117033419709,5.279187743098,4.));
#354 = CARTESIAN_POINT('',(4.140070160805,5.303794644988,4.));
#355 = CARTESIAN_POINT('',(4.164561894675,5.327567320074,4.));
#356 = CARTESIAN_POINT('',(4.219287675575,5.376305699315,4.));
#357 = CARTESIAN_POINT('',(4.249847287696,5.401053402875,4.));
#358 = CARTESIAN_POINT('',(4.281807467599,5.424820584628,4.));
#359 = CARTESIAN_POINT('',(4.314977554696,5.447651082471,4.));
#360 = CARTESIAN_POINT('',(4.349196789022,5.469589494274,4.));
#361 = CARTESIAN_POINT('',(4.384333163937,5.490681253716,4.));
#362 = CARTESIAN_POINT('',(4.420282278814,5.510972706124,4.));
#363 = CARTESIAN_POINT('',(4.577193278921,5.594546183086,4.));
#364 = CARTESIAN_POINT('',(4.704972654909,5.650312034626,4.));
#365 = CARTESIAN_POINT('',(4.83767281535,5.69962420116,4.));
#366 = CARTESIAN_POINT('',(4.973878343259,5.743257616504,4.));
#367 = CARTESIAN_POINT('',(5.112474222417,5.781972310007,4.));
#368 = CARTESIAN_POINT('',(5.252875252624,5.816260293921,4.));
#369 = CARTESIAN_POINT('',(5.394780103605,5.846578784896,4.));
#370 = CARTESIAN_POINT('',(5.717173946854,5.906540308029,4.));
#371 = CARTESIAN_POINT('',(5.897981449929,5.934064263959,4.));
#372 = CARTESIAN_POINT('',(6.080141298476,5.956438530748,4.));
#373 = CARTESIAN_POINT('',(6.263263212718,5.974019184274,4.));
#374 = CARTESIAN_POINT('',(6.447035387714,5.987046508381,4.));
#375 = CARTESIAN_POINT('',(6.631205947023,5.995681425379,4.));
#376 = CARTESIAN_POINT('',(6.815579453281,6.,4.));
#377 = CARTESIAN_POINT('',(7.156386467993,6.,4.));
#378 = CARTESIAN_POINT('',(7.312755742789,5.99689409993,4.));
#379 = CARTESIAN_POINT('',(7.46900063403,5.990684706999,4.));
#380 = CARTESIAN_POINT('',(7.624995141973,5.981329232184,4.));
#381 = CARTESIAN_POINT('',(7.780593643497,5.968748064491,4.));
#382 = CARTESIAN_POINT('',(7.935625839153,5.952819671876,4.));
#383 = CARTESIAN_POINT('',(8.08988746125,5.93336282884,4.));
#384 = CARTESIAN_POINT('',(8.376928987687,5.889799037692,4.));
#385 = CARTESIAN_POINT('',(8.50984555225,5.866611380044,4.));
#386 = CARTESIAN_POINT('',(8.641797384367,5.84035197834,4.));
#387 = CARTESIAN_POINT('',(8.772595428427,5.810789184403,4.));
#388 = CARTESIAN_POINT('',(8.901904197404,5.777612914927,4.));
#389 = CARTESIAN_POINT('',(9.029248514927,5.740447706251,4.));
#390 = CARTESIAN_POINT('',(9.153975734882,5.698801336992,4.));
#391 = CARTESIAN_POINT('',(9.357820724497,5.619748315367,4.));
#392 = CARTESIAN_POINT('',(9.438592201623,5.585285735109,4.));
#393 = CARTESIAN_POINT('',(9.51733899462,5.548113725106,4.));
#394 = CARTESIAN_POINT('',(9.593643854999,5.507880654077,4.));
#395 = CARTESIAN_POINT('',(9.666751360126,5.464237244313,4.));
#396 = CARTESIAN_POINT('',(9.735499066789,5.416809482636,4.));
#397 = CARTESIAN_POINT('',(9.798364450272,5.365241244294,4.));
#398 = CARTESIAN_POINT('',(9.866361833397,5.295483102089,4.));
#399 = CARTESIAN_POINT('',(9.879076030541,5.281690677704,4.));
#400 = CARTESIAN_POINT('',(9.891278980798,5.267637731172,4.));
#401 = CARTESIAN_POINT('',(9.902934105632,5.253324190312,4.));
#402 = CARTESIAN_POINT('',(9.914002236739,5.23875225265,4.));
#403 = CARTESIAN_POINT('',(9.924442445294,5.223926737242,4.));
#404 = CARTESIAN_POINT('',(9.9342128712,5.208855436506,4.));
#405 = CARTESIAN_POINT('',(9.956775972074,5.170731773108,4.));
#406 = CARTESIAN_POINT('',(9.968704707234,5.147382485358,4.));
#407 = CARTESIAN_POINT('',(9.978908553291,5.123551944449,4.));
#408 = CARTESIAN_POINT('',(9.987247199511,5.099304562064,4.));
#409 = CARTESIAN_POINT('',(9.993598011069,5.074720170313,4.));
#410 = CARTESIAN_POINT('',(9.997866716431,5.049895267167,4.));
#411 = CARTESIAN_POINT('',(10.,5.024944158971,4.));
#412 = CARTESIAN_POINT('',(10.,5.,4.));
#413 = PCURVE('',#44,#414);
#414 = DEFINITIONAL_REPRESENTATION('',(#415),#558);
#415 = B_SPLINE_CURVE_WITH_KNOTS('',8,(#416,#417,#418,#419,#420,#421,
    #422,#423,#424,#425,#426,#427,#428,#429,#430,#431,#432,#433,#434,
    #435,#436,#437,#438,#439,#440,#441,#442,#443,#444,#445,#446,#447,
    #448,#449,#450,#451,#452,#453,#454,#455,#456,#457,#458,#459,#460,
    #461,#462,#463,#464,#465,#466,#467,#468,#469,#470,#471,#472,#473,
    #474,#475,#476,#477,#478,#479,#480,#481,#482,#483,#484,#485,#486,
    #487,#488,#489,#490,#491,#492,#493,#494,#495,#496,#497,#498,#499,
    #500,#501,#502,#503,#504,#505,#506,#507,#508,#509,#510,#511,#512,
    #513,#514,#515,#516,#517,#518,#519,#520,#521,#522,#523,#524,#525,
    #526,#527,#528,#529,#530,#531,#532,#533,#534,#535,#536,#537,#538,
    #539,#540,#541,#542,#543,#544,#545,#546,#547,#548,#549,#550,#551,
    #552,#553,#554,#555,#556,#557),.UNSPECIFIED.,.T.,.F.,(9,7,7,7,7,7,7,
    7,7,7,7,7,7,7,7,7,7,7,7,7,9),(0.,2.150805947797E-02,
    3.662939820139E-02,6.214184607609E-02,0.145755807884,0.250032811651,
    0.338458491989,0.41566816294,0.468413104703,0.487380186088,
    0.500038847227,0.513933804524,0.536666423765,0.562174803003,
    0.645775430346,0.750035804377,0.838447382894,0.915644740714,
    0.968381270896,0.981075624668,1.),.UNSPECIFIED.);
#416 = CARTESIAN_POINT('',(10.,5.));
#417 = CARTESIAN_POINT('',(10.,4.971657616206));
#418 = CARTESIAN_POINT('',(9.997245870258,4.943305483135));
#419 = CARTESIAN_POINT('',(9.991734236317,4.915141611305));
#420 = CARTESIAN_POINT('',(9.983555530785,4.887330069626));
#421 = CARTESIAN_POINT('',(9.972864572075,4.860003759001));
#422 = CARTESIAN_POINT('',(9.959855999723,4.833267214872));
#423 = CARTESIAN_POINT('',(9.944744566286,4.807199438734));
#424 = CARTESIAN_POINT('',(9.915802379888,4.764039472446));
#425 = CARTESIAN_POINT('',(9.902918332208,4.746572618162));
#426 = CARTESIAN_POINT('',(9.889167972647,4.729467990444));
#427 = CARTESIAN_POINT('',(9.874619061089,4.712732226087));
#428 = CARTESIAN_POINT('',(9.859336019884,4.696367440924));
#429 = CARTESIAN_POINT('',(9.843378666293,4.680371866741));
#430 = CARTESIAN_POINT('',(9.826800944936,4.664740488209));
#431 = CARTESIAN_POINT('',(9.780712324425,4.623694300685));
#432 = CARTESIAN_POINT('',(9.750152712304,4.598946597125));
#433 = CARTESIAN_POINT('',(9.718192532401,4.575179415372));
#434 = CARTESIAN_POINT('',(9.685022445304,4.552348917528));
#435 = CARTESIAN_POINT('',(9.650803210978,4.530410505726));
#436 = CARTESIAN_POINT('',(9.615666836063,4.509318746284));
#437 = CARTESIAN_POINT('',(9.579717721185,4.489027293876));
#438 = CARTESIAN_POINT('',(9.422806721079,4.405453816913));
#439 = CARTESIAN_POINT('',(9.295027345092,4.349687965374));
#440 = CARTESIAN_POINT('',(9.162327184649,4.300375798841));
#441 = CARTESIAN_POINT('',(9.02612165674,4.256742383494));
#442 = CARTESIAN_POINT('',(8.887525777585,4.218027689995));
#443 = CARTESIAN_POINT('',(8.747124747374,4.183739706078));
#444 = CARTESIAN_POINT('',(8.605219896396,4.153421215104));
#445 = CARTESIAN_POINT('',(8.282826053145,4.093459691971));
#446 = CARTESIAN_POINT('',(8.102018550072,4.065935736041));
#447 = CARTESIAN_POINT('',(7.919858701522,4.043561469252));
#448 = CARTESIAN_POINT('',(7.736736787282,4.025980815726));
#449 = CARTESIAN_POINT('',(7.552964612287,4.012953491619));
#450 = CARTESIAN_POINT('',(7.368794052976,4.004318574621));
#451 = CARTESIAN_POINT('',(7.184420546719,4.));
#452 = CARTESIAN_POINT('',(6.843613532007,4.));
#453 = CARTESIAN_POINT('',(6.687244257211,4.00310590007));
#454 = CARTESIAN_POINT('',(6.53099936597,4.009315293001));
#455 = CARTESIAN_POINT('',(6.375004858028,4.018670767816));
#456 = CARTESIAN_POINT('',(6.219406356503,4.031251935509));
#457 = CARTESIAN_POINT('',(6.064374160846,4.047180328124));
#458 = CARTESIAN_POINT('',(5.91011253875,4.06663717116));
#459 = CARTESIAN_POINT('',(5.623071012313,4.110200962308));
#460 = CARTESIAN_POINT('',(5.49015444775,4.133388619956));
#461 = CARTESIAN_POINT('',(5.358202615632,4.15964802166));
#462 = CARTESIAN_POINT('',(5.227404571572,4.189210815598));
#463 = CARTESIAN_POINT('',(5.098095802597,4.222387085073));
#464 = CARTESIAN_POINT('',(4.970751485073,4.259552293749));
#465 = CARTESIAN_POINT('',(4.846024265118,4.301198663008));
#466 = CARTESIAN_POINT('',(4.642179275503,4.380251684633));
#467 = CARTESIAN_POINT('',(4.561407798379,4.414714264891));
#468 = CARTESIAN_POINT('',(4.482661005376,4.451886274894));
#469 = CARTESIAN_POINT('',(4.406356145005,4.492119345924));
#470 = CARTESIAN_POINT('',(4.333248639872,4.535762755686));
#471 = CARTESIAN_POINT('',(4.264500933212,4.583190517364));
#472 = CARTESIAN_POINT('',(4.201635549728,4.634758755706));
#473 = CARTESIAN_POINT('',(4.127122537313,4.711201246245));
#474 = CARTESIAN_POINT('',(4.108480776925,4.731997076913));
#475 = CARTESIAN_POINT('',(4.091016447153,4.75337755882));
#476 = CARTESIAN_POINT('',(4.07485654946,4.775339130713));
#477 = CARTESIAN_POINT('',(4.060140492863,4.797865912057));
#478 = CARTESIAN_POINT('',(4.047013605246,4.820927197487));
#479 = CARTESIAN_POINT('',(4.035617472684,4.844474142578));
#480 = CARTESIAN_POINT('',(4.019709850991,4.884427584083));
#481 = CARTESIAN_POINT('',(4.014169092071,4.900604419014));
#482 = CARTESIAN_POINT('',(4.009493163013,4.91694188038));
#483 = CARTESIAN_POINT('',(4.005715362797,4.933413027839));
#484 = CARTESIAN_POINT('',(4.002862612828,4.949988209486));
#485 = CARTESIAN_POINT('',(4.000954113374,4.966635025329));
#486 = CARTESIAN_POINT('',(4.,4.983318290756));
#487 = CARTESIAN_POINT('',(4.,5.018310912588));
#488 = CARTESIAN_POINT('',(4.001149594517,5.03662410442));
#489 = CARTESIAN_POINT('',(4.003449189105,5.054888795282));
#490 = CARTESIAN_POINT('',(4.006883965589,5.073058615112));
#491 = CARTESIAN_POINT('',(4.011426131128,5.091091508365));
#492 = CARTESIAN_POINT('',(4.017037167289,5.108949638374));
#493 = CARTESIAN_POINT('',(4.023670079115,5.126599291711));
#494 = CARTESIAN_POINT('',(4.043708061292,5.172496569392));
#495 = CARTESIAN_POINT('',(4.058735854424,5.200341622052));
#496 = CARTESIAN_POINT('',(4.076130849381,5.227441932051));
#497 = CARTESIAN_POINT('',(4.09564526152,5.25373446206));
#498 = CARTESIAN_POINT('',(4.117033419709,5.279187743098));
#499 = CARTESIAN_POINT('',(4.140070160805,5.303794644988));
#500 = CARTESIAN_POINT('',(4.164561894675,5.327567320074));
#501 = CARTESIAN_POINT('',(4.219287675575,5.376305699315));
#502 = CARTESIAN_POINT('',(4.249847287696,5.401053402875));
#503 = CARTESIAN_POINT('',(4.281807467599,5.424820584628));
#504 = CARTESIAN_POINT('',(4.314977554696,5.447651082471));
#505 = CARTESIAN_POINT('',(4.349196789022,5.469589494274));
#506 = CARTESIAN_POINT('',(4.384333163937,5.490681253716));
#507 = CARTESIAN_POINT('',(4.420282278814,5.510972706124));
#508 = CARTESIAN_POINT('',(4.577193278921,5.594546183086));
#509 = CARTESIAN_POINT('',(4.704972654909,5.650312034626));
#510 = CARTESIAN_POINT('',(4.83767281535,5.69962420116));
#511 = CARTESIAN_POINT('',(4.973878343259,5.743257616504));
#512 = CARTESIAN_POINT('',(5.112474222417,5.781972310007));
#513 = CARTESIAN_POINT('',(5.252875252624,5.816260293921));
#514 = CARTESIAN_POINT('',(5.394780103605,5.846578784896));
#515 = CARTESIAN_POINT('',(5.717173946854,5.906540308029));
#516 = CARTESIAN_POINT('',(5.897981449929,5.934064263959));
#517 = CARTESIAN_POINT('',(6.080141298476,5.956438530748));
#518 = CARTESIAN_POINT('',(6.263263212718,5.974019184274));
#519 = CARTESIAN_POINT('',(6.447035387714,5.987046508381));
#520 = CARTESIAN_POINT('',(6.631205947023,5.995681425379));
#521 = CARTESIAN_POINT('',(6.815579453281,6.));
#522 = CARTESIAN_POINT('',(7.156386467993,6.));
#523 = CARTESIAN_POINT('',(7.312755742789,5.99689409993));
#524 = CARTESIAN_POINT('',(7.46900063403,5.990684706999));
#525 = CARTESIAN_POINT('',(7.624995141973,5.981329232184));
#526 = CARTESIAN_POINT('',(7.780593643497,5.968748064491));
#527 = CARTESIAN_POINT('',(7.935625839153,5.952819671876));
#528 = CARTESIAN_POINT('',(8.08988746125,5.93336282884));
#529 = CARTESIAN_POINT('',(8.376928987687,5.889799037692));
#530 = CARTESIAN_POINT('',(8.50984555225,5.866611380044));
#531 = CARTESIAN_POINT('',(8.641797384367,5.84035197834));
#532 = CARTESIAN_POINT('',(8.772595428427,5.810789184403));
#533 = CARTESIAN_POINT('',(8.901904197404,5.777612914927));
#534 = CARTESIAN_POINT('',(9.029248514927,5.740447706251));
#535 = CARTESIAN_POINT('',(9.153975734882,5.698801336992));
#536 = CARTESIAN_POINT('',(9.357820724497,5.619748315367));
#537 = CARTESIAN_POINT('',(9.438592201623,5.585285735109));
#538 = CARTESIAN_POINT('',(9.51733899462,5.548113725106));
#539 = CARTESIAN_POINT('',(9.593643854999,5.507880654077));
#540 = CARTESIAN_POINT('',(9.666751360126,5.464237244313));
#541 = CARTESIAN_POINT('',(9.735499066789,5.416809482636));
#542 = CARTESIAN_POINT('',(9.798364450272,5.365241244294));
#543 = CARTESIAN_POINT('',(9.866361833397,5.295483102089));
#544 = CARTESIAN_POINT('',(9.879076030541,5.281690677704));
#545 = CARTESIAN_POINT('',(9.891278980798,5.267637731172));
#546 = CARTESIAN_POINT('',(9.902934105632,5.253324190312));
#547 = CARTESIAN_POINT('',(9.914002236739,5.23875225265));
#548 = CARTESIAN_POINT('',(9.924442445294,5.223926737242));
#549 = CARTESIAN_POINT('',(9.9342128712,5.208855436506));
#550 = CARTESIAN_POINT('',(9.956775972074,5.170731773108));
#551 = CARTESIAN_POINT('',(9.968704707234,5.147382485358));
#552 = CARTESIAN_POINT('',(9.978908553291,5.123551944449));
#553 = CARTESIAN_POINT('',(9.987247199511,5.099304562064));
#554 = CARTESIAN_POINT('',(9.993598011069,5.074720170313));
#555 = CARTESIAN_POINT('',(9.997866716431,5.049895267167));
#556 = CARTESIAN_POINT('',(10.,5.024944158971));
#557 = CARTESIAN_POINT('',(10.,5.));
#558 = ( GEOMETRIC_REPRESENTATION_CONTEXT(2) 
PARAMETRIC_REPRESENTATION_CONTEXT() REPRESENTATION_CONTEXT('2D SPACE',''
  ) );
#559 = PCURVE('',#560,#568);
#560 = SURFACE_OF_LINEAR_EXTRUSION('',#561,#566);
#561 = ELLIPSE('',#562,3.,1.);
#562 = AXIS2_PLACEMENT_3D('',#563,#564,#565);
#563 = CARTESIAN_POINT('',(7.,5.,-1.));
#564 = DIRECTION('',(0.,0.,1.));
#565 = DIRECTION('',(1.,0.,-0.));
#566 = VECTOR('',#567,1.);
#567 = DIRECTION('',(-0.,-0.,-1.));
#568 = DEFINITIONAL_REPRESENTATION('',(#569),#712);
#569 = B_SPLINE_CURVE_WITH_KNOTS('',8,(#570,#571,#572,#573,#574,#575,
    #576,#577,#578,#579,#580,#581,#582,#583,#584,#585,#586,#587,#588,
    #589,#590,#591,#592,#593,#594,#595,#596,#597,#598,#599,#600,#601,
    #602,#603,#604,#605,#606,#607,#608,#609,#610,#611,#612,#613,#614,
    #615,#616,#617,#618,#619,#620,#621,#622,#623,#624,#625,#626,#627,
    #628,#629,#630,#631,#632,#633,#634,#635,#636,#637,#638,#639,#640,
    #641,#642,#643,#644,#645,#646,#647,#648,#649,#650,#651,#652,#653,
    #654,#655,#656,#657,#658,#659,#660,#661,#662,#663,#664,#665,#666,
    #667,#668,#669,#670,#671,#672,#673,#674,#675,#676,#677,#678,#679,
    #680,#681,#682,#683,#684,#685,#686,#687,#688,#689,#690,#691,#692,
    #693,#694,#695,#696,#697,#698,#699,#700,#701,#702,#703,#704,#705,
    #706,#707,#708,#709,#710,#711),.UNSPECIFIED.,.F.,.F.,(9,7,7,7,7,7,7,
    7,7,7,7,7,7,7,7,7,7,7,7,7,9),(0.,2.150805947797E-02,
    3.662939820139E-02,6.214184607609E-02,0.145755807884,0.250032811651,
    0.338458491989,0.41566816294,0.468413104703,0.487380186088,
    0.500038847227,0.513933804524,0.536666423765,0.562174803003,
    0.645775430346,0.750035804377,0.838447382894,0.915644740714,
    0.968381270896,0.981075624668,1.),.UNSPECIFIED.);
#570 = CARTESIAN_POINT('',(6.28318530718,-5.));
#571 = CARTESIAN_POINT('',(6.254842923385,-5.));
#572 = CARTESIAN_POINT('',(6.226490809689,-5.));
#573 = CARTESIAN_POINT('',(6.198292196129,-5.));
#574 = CARTESIAN_POINT('',(6.170376499514,-5.));
#575 = CARTESIAN_POINT('',(6.142845966207,-5.));
#576 = CARTESIAN_POINT('',(6.115780674543,-5.));
#577 = CARTESIAN_POINT('',(6.089241896902,-5.));
#578 = CARTESIAN_POINT('',(6.045016848239,-5.));
#579 = CARTESIAN_POINT('',(6.027033811423,-5.));
#580 = CARTESIAN_POINT('',(6.00933197579,-5.));
#581 = CARTESIAN_POINT('',(5.991914687701,-5.));
#582 = CARTESIAN_POINT('',(5.974781784933,-5.));
#583 = CARTESIAN_POINT('',(5.957930006541,-5.));
#584 = CARTESIAN_POINT('',(5.941353402721,-5.));
#585 = CARTESIAN_POINT('',(5.897526386024,-5.));
#586 = CARTESIAN_POINT('',(5.870778129255,-5.));
#587 = CARTESIAN_POINT('',(5.844752939302,-5.));
#588 = CARTESIAN_POINT('',(5.819407531024,-5.));
#589 = CARTESIAN_POINT('',(5.794700075556,-5.));
#590 = CARTESIAN_POINT('',(5.770588906658,-5.));
#591 = CARTESIAN_POINT('',(5.747031227065,-5.));
#592 = CARTESIAN_POINT('',(5.648440154436,-5.));
#593 = CARTESIAN_POINT('',(5.578572151535,-5.));
#594 = CARTESIAN_POINT('',(5.512650778757,-5.));
#595 = CARTESIAN_POINT('',(5.450011204153,-5.));
#596 = CARTESIAN_POINT('',(5.389993551386,-5.));
#597 = CARTESIAN_POINT('',(5.33217081091,-5.));
#598 = CARTESIAN_POINT('',(5.276090793302,-5.));
#599 = CARTESIAN_POINT('',(5.153029720625,-5.));
#600 = CARTESIAN_POINT('',(5.086987670965,-5.));
#601 = CARTESIAN_POINT('',(5.02257683636,-5.));
#602 = CARTESIAN_POINT('',(4.959382332233,-5.));
#603 = CARTESIAN_POINT('',(4.897065273112,-5.));
#604 = CARTESIAN_POINT('',(4.835320066041,-5.));
#605 = CARTESIAN_POINT('',(4.773862495958,-5.));
#606 = CARTESIAN_POINT('',(4.66026015772,-5.));
#607 = CARTESIAN_POINT('',(4.608136649862,-5.));
#608 = CARTESIAN_POINT('',(4.55584017569,-5.));
#609 = CARTESIAN_POINT('',(4.50319419963,-5.));
#610 = CARTESIAN_POINT('',(4.450019028943,-5.));
#611 = CARTESIAN_POINT('',(4.396118385023,-5.));
#612 = CARTESIAN_POINT('',(4.341257448688,-5.));
#613 = CARTESIAN_POINT('',(4.236126275073,-5.));
#614 = CARTESIAN_POINT('',(4.186195617933,-5.));
#615 = CARTESIAN_POINT('',(4.135103193385,-5.));
#616 = CARTESIAN_POINT('',(4.082609285575,-5.));
#617 = CARTESIAN_POINT('',(4.028423600462,-5.));
#618 = CARTESIAN_POINT('',(3.972209391427,-5.));
#619 = CARTESIAN_POINT('',(3.913525571137,-5.));
#620 = CARTESIAN_POINT('',(3.809283757259,-5.));
#621 = CARTESIAN_POINT('',(3.765598715565,-5.));
#622 = CARTESIAN_POINT('',(3.720183958107,-5.));
#623 = CARTESIAN_POINT('',(3.672714459373,-5.));
#624 = CARTESIAN_POINT('',(3.622891824838,-5.));
#625 = CARTESIAN_POINT('',(3.570389444757,-5.));
#626 = CARTESIAN_POINT('',(3.514869593825,-5.));
#627 = CARTESIAN_POINT('',(3.434493202696,-5.));
#628 = CARTESIAN_POINT('',(3.412795000463,-5.));
#629 = CARTESIAN_POINT('',(3.390647351808,-5.));
#630 = CARTESIAN_POINT('',(3.368049650098,-5.));
#631 = CARTESIAN_POINT('',(3.34501124094,-5.));
#632 = CARTESIAN_POINT('',(3.321553180245,-5.));
#633 = CARTESIAN_POINT('',(3.297711151895,-5.));
#634 = CARTESIAN_POINT('',(3.257407375092,-5.));
#635 = CARTESIAN_POINT('',(3.241128151246,-5.));
#636 = CARTESIAN_POINT('',(3.22472125976,-5.));
#637 = CARTESIAN_POINT('',(3.208207942915,-5.));
#638 = CARTESIAN_POINT('',(3.191611520893,-5.));
#639 = CARTESIAN_POINT('',(3.174957613657,-5.));
#640 = CARTESIAN_POINT('',(3.158274362834,-5.));
#641 = CARTESIAN_POINT('',(3.123281741002,-5.));
#642 = CARTESIAN_POINT('',(3.10496857591,-5.));
#643 = CARTESIAN_POINT('',(3.086694497267,-5.));
#644 = CARTESIAN_POINT('',(3.068496577224,-5.));
#645 = CARTESIAN_POINT('',(3.050407992621,-5.));
#646 = CARTESIAN_POINT('',(3.03245839648,-5.));
#647 = CARTESIAN_POINT('',(3.014674289495,-5.));
#648 = CARTESIAN_POINT('',(2.968293544429,-5.));
#649 = CARTESIAN_POINT('',(2.940017392892,-5.));
#650 = CARTESIAN_POINT('',(2.912328104995,-5.));
#651 = CARTESIAN_POINT('',(2.885269328436,-5.));
#652 = CARTESIAN_POINT('',(2.858859952774,-5.));
#653 = CARTESIAN_POINT('',(2.833100062003,-5.));
#654 = CARTESIAN_POINT('',(2.807974077461,-5.));
#655 = CARTESIAN_POINT('',(2.755933732434,-5.));
#656 = CARTESIAN_POINT('',(2.729185475665,-5.));
#657 = CARTESIAN_POINT('',(2.703160285712,-5.));
#658 = CARTESIAN_POINT('',(2.677814877434,-5.));
#659 = CARTESIAN_POINT('',(2.653107421967,-5.));
#660 = CARTESIAN_POINT('',(2.628996253068,-5.));
#661 = CARTESIAN_POINT('',(2.605438573475,-5.));
#662 = CARTESIAN_POINT('',(2.506847500847,-5.));
#663 = CARTESIAN_POINT('',(2.436979497946,-5.));
#664 = CARTESIAN_POINT('',(2.371058125164,-5.));
#665 = CARTESIAN_POINT('',(2.308418550569,-5.));
#666 = CARTESIAN_POINT('',(2.248400897792,-5.));
#667 = CARTESIAN_POINT('',(2.190578157323,-5.));
#668 = CARTESIAN_POINT('',(2.134498139712,-5.));
#669 = CARTESIAN_POINT('',(2.011437067036,-5.));
#670 = CARTESIAN_POINT('',(1.945395017375,-5.));
#671 = CARTESIAN_POINT('',(1.880984182771,-5.));
#672 = CARTESIAN_POINT('',(1.817789678643,-5.));
#673 = CARTESIAN_POINT('',(1.755472619522,-5.));
#674 = CARTESIAN_POINT('',(1.693727412452,-5.));
#675 = CARTESIAN_POINT('',(1.632269842368,-5.));
#676 = CARTESIAN_POINT('',(1.518667504131,-5.));
#677 = CARTESIAN_POINT('',(1.466543996272,-5.));
#678 = CARTESIAN_POINT('',(1.4142475221,-5.));
#679 = CARTESIAN_POINT('',(1.36160154604,-5.));
#680 = CARTESIAN_POINT('',(1.308426375354,-5.));
#681 = CARTESIAN_POINT('',(1.254525731433,-5.));
#682 = CARTESIAN_POINT('',(1.199664795099,-5.));
#683 = CARTESIAN_POINT('',(1.094533621483,-5.));
#684 = CARTESIAN_POINT('',(1.044602964343,-5.));
#685 = CARTESIAN_POINT('',(0.993510539795,-5.));
#686 = CARTESIAN_POINT('',(0.941016631985,-5.));
#687 = CARTESIAN_POINT('',(0.886830946873,-5.));
#688 = CARTESIAN_POINT('',(0.830616737837,-5.));
#689 = CARTESIAN_POINT('',(0.771932917547,-5.));
#690 = CARTESIAN_POINT('',(0.66769110367,-5.));
#691 = CARTESIAN_POINT('',(0.624006061975,-5.));
#692 = CARTESIAN_POINT('',(0.578591304517,-5.));
#693 = CARTESIAN_POINT('',(0.531121805785,-5.));
#694 = CARTESIAN_POINT('',(0.481299171246,-5.));
#695 = CARTESIAN_POINT('',(0.428796791168,-5.));
#696 = CARTESIAN_POINT('',(0.373276940235,-5.));
#697 = CARTESIAN_POINT('',(0.299928888873,-5.));
#698 = CARTESIAN_POINT('',(0.285501869488,-5.));
#699 = CARTESIAN_POINT('',(0.270875369853,-5.));
#700 = CARTESIAN_POINT('',(0.256048167314,-5.));
#701 = CARTESIAN_POINT('',(0.241020910253,-5.));
#702 = CARTESIAN_POINT('',(0.225796374433,-5.));
#703 = CARTESIAN_POINT('',(0.210379719339,-5.));
#704 = CARTESIAN_POINT('',(0.171521262632,-5.));
#705 = CARTESIAN_POINT('',(0.147843904479,-5.));
#706 = CARTESIAN_POINT('',(0.123786482466,-5.));
#707 = CARTESIAN_POINT('',(9.93992214372E-02,-5.));
#708 = CARTESIAN_POINT('',(7.474383003793E-02,-5.));
#709 = CARTESIAN_POINT('',(4.989526080459E-02,-5.));
#710 = CARTESIAN_POINT('',(2.49441589711E-02,-5.));
#711 = CARTESIAN_POINT('',(0.,-5.));
#712 = ( GEOMETRIC_REPRESENTATION_CONTEXT(2) 
PARAMETRIC_REPRESENTATION_CONTEXT() REPRESENTATION_CONTEXT('2D SPACE',''
  ) );
#713 = ADVANCED_FACE('',(#714),#124,.T.);
#714 = FACE_BOUND('',#715,.T.);
#715 = EDGE_LOOP('',(#716,#739,#740,#741));
#716 = ORIENTED_EDGE('',*,*,#717,.F.);
#717 = EDGE_CURVE('',#83,#718,#720,.T.);
#718 = VERTEX_POINT('',#719);
#719 = CARTESIAN_POINT('',(14.,10.,0.));
#720 = SURFACE_CURVE('',#721,(#725,#732),.PCURVE_S1.);
#721 = LINE('',#722,#723);
#722 = CARTESIAN_POINT('',(0.,10.,0.));
#723 = VECTOR('',#724,1.);
#724 = DIRECTION('',(1.,0.,-0.));
#725 = PCURVE('',#124,#726);
#726 = DEFINITIONAL_REPRESENTATION('',(#727),#731);
#727 = LINE('',#728,#729);
#728 = CARTESIAN_POINT('',(0.,0.));
#729 = VECTOR('',#730,1.);
#730 = DIRECTION('',(0.,1.));
#731 = ( GEOMETRIC_REPRESENTATION_CONTEXT(2) 
PARAMETRIC_REPRESENTATION_CONTEXT() REPRESENTATION_CONTEXT('2D SPACE',''
  ) );
#732 = PCURVE('',#98,#733);
#733 = DEFINITIONAL_REPRESENTATION('',(#734),#738);
#734 = LINE('',#735,#736);
#735 = CARTESIAN_POINT('',(0.,10.));
#736 = VECTOR('',#737,1.);
#737 = DIRECTION('',(1.,0.));
#738 = ( GEOMETRIC_REPRESENTATION_CONTEXT(2) 
PARAMETRIC_REPRESENTATION_CONTEXT() REPRESENTATION_CONTEXT('2D SPACE',''
  ) );
#739 = ORIENTED_EDGE('',*,*,#110,.T.);
#740 = ORIENTED_EDGE('',*,*,#243,.T.);
#741 = ORIENTED_EDGE('',*,*,#742,.F.);
#742 = EDGE_CURVE('',#718,#216,#743,.T.);
#743 = SURFACE_CURVE('',#744,(#748,#755),.PCURVE_S1.);
#744 = LINE('',#745,#746);
#745 = CARTESIAN_POINT('',(14.,10.,0.));
#746 = VECTOR('',#747,1.);
#747 = DIRECTION('',(0.,0.,1.));
#748 = PCURVE('',#124,#749);
#749 = DEFINITIONAL_REPRESENTATION('',(#750),#754);
#750 = LINE('',#751,#752);
#751 = CARTESIAN_POINT('',(0.,14.));
#752 = VECTOR('',#753,1.);
#753 = DIRECTION('',(1.,0.));
#754 = ( GEOMETRIC_REPRESENTATION_CONTEXT(2) 
PARAMETRIC_REPRESENTATION_CONTEXT() REPRESENTATION_CONTEXT('2D SPACE',''
  ) );
#755 = PCURVE('',#231,#756);
#756 = DEFINITIONAL_REPRESENTATION('',(#757),#761);
#757 = LINE('',#758,#759);
#758 = CARTESIAN_POINT('',(0.,-10.));
#759 = VECTOR('',#760,1.);
#760 = DIRECTION('',(1.,0.));
#761 = ( GEOMETRIC_REPRESENTATION_CONTEXT(2) 
PARAMETRIC_REPRESENTATION_CONTEXT() REPRESENTATION_CONTEXT('2D SPACE',''
  ) );
#762 = ADVANCED_FACE('',(#763,#853),#98,.F.);
#763 = FACE_BOUND('',#764,.F.);
#764 = EDGE_LOOP('',(#765,#766,#787,#808,#831,#852));
#765 = ORIENTED_EDGE('',*,*,#82,.F.);
#766 = ORIENTED_EDGE('',*,*,#767,.F.);
#767 = EDGE_CURVE('',#768,#57,#770,.T.);
#768 = VERTEX_POINT('',#769);
#769 = CARTESIAN_POINT('',(2.,2.,0.));
#770 = SURFACE_CURVE('',#771,(#775,#781),.PCURVE_S1.);
#771 = LINE('',#772,#773);
#772 = CARTESIAN_POINT('',(-0.5,2.,0.));
#773 = VECTOR('',#774,1.);
#774 = DIRECTION('',(-1.,-0.,0.));
#775 = PCURVE('',#98,#776);
#776 = DEFINITIONAL_REPRESENTATION('',(#777),#780);
#777 = B_SPLINE_CURVE_WITH_KNOTS('',1,(#778,#779),.UNSPECIFIED.,.F.,.F.,
  (2,2),(-2.5,-0.5),.PIECEWISE_BEZIER_KNOTS.);
#778 = CARTESIAN_POINT('',(2.,2.));
#779 = CARTESIAN_POINT('',(0.,2.));
#780 = ( GEOMETRIC_REPRESENTATION_CONTEXT(2) 
PARAMETRIC_REPRESENTATION_CONTEXT() REPRESENTATION_CONTEXT('2D SPACE',''
  ) );
#781 = PCURVE('',#71,#782);
#782 = DEFINITIONAL_REPRESENTATION('',(#783),#786);
#783 = B_SPLINE_CURVE_WITH_KNOTS('',1,(#784,#785),.UNSPECIFIED.,.F.,.F.,
  (2,2),(-2.5,-0.5),.PIECEWISE_BEZIER_KNOTS.);
#784 = CARTESIAN_POINT('',(1.,3.));
#785 = CARTESIAN_POINT('',(1.,1.));
#786 = ( GEOMETRIC_REPRESENTATION_CONTEXT(2) 
PARAMETRIC_REPRESENTATION_CONTEXT() REPRESENTATION_CONTEXT('2D SPACE',''
  ) );
#787 = ORIENTED_EDGE('',*,*,#788,.F.);
#788 = EDGE_CURVE('',#789,#768,#791,.T.);
#789 = VERTEX_POINT('',#790);
#790 = CARTESIAN_POINT('',(2.,0.,0.));
#791 = SURFACE_CURVE('',#792,(#796,#802),.PCURVE_S1.);
#792 = LINE('',#793,#794);
#793 = CARTESIAN_POINT('',(2.,-0.5,0.));
#794 = VECTOR('',#795,1.);
#795 = DIRECTION('',(-0.,1.,0.));
#796 = PCURVE('',#98,#797);
#797 = DEFINITIONAL_REPRESENTATION('',(#798),#801);
#798 = B_SPLINE_CURVE_WITH_KNOTS('',1,(#799,#800),.UNSPECIFIED.,.F.,.F.,
  (2,2),(0.5,2.5),.PIECEWISE_BEZIER_KNOTS.);
#799 = CARTESIAN_POINT('',(2.,0.));
#800 = CARTESIAN_POINT('',(2.,2.));
#801 = ( GEOMETRIC_REPRESENTATION_CONTEXT(2) 
PARAMETRIC_REPRESENTATION_CONTEXT() REPRESENTATION_CONTEXT('2D SPACE',''
  ) );
#802 = PCURVE('',#176,#803);
#803 = DEFINITIONAL_REPRESENTATION('',(#804),#807);
#804 = B_SPLINE_CURVE_WITH_KNOTS('',1,(#805,#806),.UNSPECIFIED.,.F.,.F.,
  (2,2),(0.5,2.5),.PIECEWISE_BEZIER_KNOTS.);
#805 = CARTESIAN_POINT('',(1.,-1.));
#806 = CARTESIAN_POINT('',(1.,-3.));
#807 = ( GEOMETRIC_REPRESENTATION_CONTEXT(2) 
PARAMETRIC_REPRESENTATION_CONTEXT() REPRESENTATION_CONTEXT('2D SPACE',''
  ) );
#808 = ORIENTED_EDGE('',*,*,#809,.T.);
#809 = EDGE_CURVE('',#789,#810,#812,.T.);
#810 = VERTEX_POINT('',#811);
#811 = CARTESIAN_POINT('',(14.,0.,0.));
#812 = SURFACE_CURVE('',#813,(#817,#824),.PCURVE_S1.);
#813 = LINE('',#814,#815);
#814 = CARTESIAN_POINT('',(0.,0.,0.));
#815 = VECTOR('',#816,1.);
#816 = DIRECTION('',(1.,0.,-0.));
#817 = PCURVE('',#98,#818);
#818 = DEFINITIONAL_REPRESENTATION('',(#819),#823);
#819 = LINE('',#820,#821);
#820 = CARTESIAN_POINT('',(0.,0.));
#821 = VECTOR('',#822,1.);
#822 = DIRECTION('',(1.,0.));
#823 = ( GEOMETRIC_REPRESENTATION_CONTEXT(2) 
PARAMETRIC_REPRESENTATION_CONTEXT() REPRESENTATION_CONTEXT('2D SPACE',''
  ) );
#824 = PCURVE('',#203,#825);
#825 = DEFINITIONAL_REPRESENTATION('',(#826),#830);
#826 = LINE('',#827,#828);
#827 = CARTESIAN_POINT('',(0.,0.));
#828 = VECTOR('',#829,1.);
#829 = DIRECTION('',(0.,1.));
#830 = ( GEOMETRIC_REPRESENTATION_CONTEXT(2) 
PARAMETRIC_REPRESENTATION_CONTEXT() REPRESENTATION_CONTEXT('2D SPACE',''
  ) );
#831 = ORIENTED_EDGE('',*,*,#832,.T.);
#832 = EDGE_CURVE('',#810,#718,#833,.T.);
#833 = SURFACE_CURVE('',#834,(#838,#845),.PCURVE_S1.);
#834 = LINE('',#835,#836);
#835 = CARTESIAN_POINT('',(14.,0.,0.));
#836 = VECTOR('',#837,1.);
#837 = DIRECTION('',(-0.,1.,0.));
#838 = PCURVE('',#98,#839);
#839 = DEFINITIONAL_REPRESENTATION('',(#840),#844);
#840 = LINE('',#841,#842);
#841 = CARTESIAN_POINT('',(14.,0.));
#842 = VECTOR('',#843,1.);
#843 = DIRECTION('',(0.,1.));
#844 = ( GEOMETRIC_REPRESENTATION_CONTEXT(2) 
PARAMETRIC_REPRESENTATION_CONTEXT() REPRESENTATION_CONTEXT('2D SPACE',''
  ) );
#845 = PCURVE('',#231,#846);
#846 = DEFINITIONAL_REPRESENTATION('',(#847),#851);
#847 = LINE('',#848,#849);
#848 = CARTESIAN_POINT('',(0.,0.));
#849 = VECTOR('',#850,1.);
#850 = DIRECTION('',(0.,-1.));
#851 = ( GEOMETRIC_REPRESENTATION_CONTEXT(2) 
PARAMETRIC_REPRESENTATION_CONTEXT() REPRESENTATION_CONTEXT('2D SPACE',''
  ) );
#852 = ORIENTED_EDGE('',*,*,#717,.F.);
#853 = FACE_BOUND('',#854,.F.);
#854 = EDGE_LOOP('',(#855));
#855 = ORIENTED_EDGE('',*,*,#856,.T.);
#856 = EDGE_CURVE('',#857,#857,#859,.T.);
#857 = VERTEX_POINT('',#858);
#858 = CARTESIAN_POINT('',(10.,5.,0.));
#859 = SURFACE_CURVE('',#860,(#1003,#1149),.PCURVE_S1.);
#860 = B_SPLINE_CURVE_WITH_KNOTS('',8,(#861,#862,#863,#864,#865,#866,
    #867,#868,#869,#870,#871,#872,#873,#874,#875,#876,#877,#878,#879,
    #880,#881,#882,#883,#884,#885,#886,#887,#888,#889,#890,#891,#892,
    #893,#894,#895,#896,#897,#898,#899,#900,#901,#902,#903,#904,#905,
    #906,#907,#908,#909,#910,#911,#912,#913,#914,#915,#916,#917,#918,
    #919,#920,#921,#922,#923,#924,#925,#926,#927,#928,#929,#930,#931,
    #932,#933,#934,#935,#936,#937,#938,#939,#940,#941,#942,#943,#944,
    #945,#946,#947,#948,#949,#950,#951,#952,#953,#954,#955,#956,#957,
    #958,#959,#960,#961,#962,#963,#964,#965,#966,#967,#968,#969,#970,
    #971,#972,#973,#974,#975,#976,#977,#978,#979,#980,#981,#982,#983,
    #984,#985,#986,#987,#988,#989,#990,#991,#992,#993,#994,#995,#996,
    #997,#998,#999,#1000,#1001,#1002),.UNSPECIFIED.,.T.,.F.,(9,7,7,7,7,7
    ,7,7,7,7,7,7,7,7,7,7,7,7,7,7,9),(0.,2.150805947797E-02,
    3.662939820139E-02,6.214184607609E-02,0.145755807884,0.250032811651,
    0.338458491989,0.41566816294,0.468413104703,0.487380186088,
    0.500038847227,0.513933804524,0.536666423765,0.562174803003,
    0.645775430346,0.750035804377,0.838447382894,0.915644740714,
    0.968381270896,0.981075624668,1.),.UNSPECIFIED.);
#861 = CARTESIAN_POINT('',(10.,5.,0.));
#862 = CARTESIAN_POINT('',(10.,4.971657616206,0.));
#863 = CARTESIAN_POINT('',(9.997245870258,4.943305483135,0.));
#864 = CARTESIAN_POINT('',(9.991734236317,4.915141611305,0.));
#865 = CARTESIAN_POINT('',(9.983555530785,4.887330069626,0.));
#866 = CARTESIAN_POINT('',(9.972864572075,4.860003759001,0.));
#867 = CARTESIAN_POINT('',(9.959855999723,4.833267214872,0.));
#868 = CARTESIAN_POINT('',(9.944744566286,4.807199438734,0.));
#869 = CARTESIAN_POINT('',(9.915802379888,4.764039472446,0.));
#870 = CARTESIAN_POINT('',(9.902918332208,4.746572618162,0.));
#871 = CARTESIAN_POINT('',(9.889167972647,4.729467990444,0.));
#872 = CARTESIAN_POINT('',(9.874619061089,4.712732226087,0.));
#873 = CARTESIAN_POINT('',(9.859336019884,4.696367440924,0.));
#874 = CARTESIAN_POINT('',(9.843378666293,4.680371866741,0.));
#875 = CARTESIAN_POINT('',(9.826800944936,4.664740488209,0.));
#876 = CARTESIAN_POINT('',(9.780712324425,4.623694300685,0.));
#877 = CARTESIAN_POINT('',(9.750152712304,4.598946597125,0.));
#878 = CARTESIAN_POINT('',(9.718192532401,4.575179415372,0.));
#879 = CARTESIAN_POINT('',(9.685022445304,4.552348917528,0.));
#880 = CARTESIAN_POINT('',(9.650803210978,4.530410505726,0.));
#881 = CARTESIAN_POINT('',(9.615666836063,4.509318746284,0.));
#882 = CARTESIAN_POINT('',(9.579717721185,4.489027293876,0.));
#883 = CARTESIAN_POINT('',(9.422806721079,4.405453816913,0.));
#884 = CARTESIAN_POINT('',(9.295027345092,4.349687965374,0.));
#885 = CARTESIAN_POINT('',(9.162327184649,4.300375798841,0.));
#886 = CARTESIAN_POINT('',(9.02612165674,4.256742383494,0.));
#887 = CARTESIAN_POINT('',(8.887525777585,4.218027689995,0.));
#888 = CARTESIAN_POINT('',(8.747124747374,4.183739706078,0.));
#889 = CARTESIAN_POINT('',(8.605219896396,4.153421215104,0.));
#890 = CARTESIAN_POINT('',(8.282826053145,4.093459691971,0.));
#891 = CARTESIAN_POINT('',(8.102018550072,4.065935736041,0.));
#892 = CARTESIAN_POINT('',(7.919858701522,4.043561469252,0.));
#893 = CARTESIAN_POINT('',(7.736736787282,4.025980815726,0.));
#894 = CARTESIAN_POINT('',(7.552964612287,4.012953491619,0.));
#895 = CARTESIAN_POINT('',(7.368794052976,4.004318574621,0.));
#896 = CARTESIAN_POINT('',(7.184420546719,4.,0.));
#897 = CARTESIAN_POINT('',(6.843613532007,4.,0.));
#898 = CARTESIAN_POINT('',(6.687244257211,4.00310590007,0.));
#899 = CARTESIAN_POINT('',(6.53099936597,4.009315293001,0.));
#900 = CARTESIAN_POINT('',(6.375004858028,4.018670767816,0.));
#901 = CARTESIAN_POINT('',(6.219406356503,4.031251935509,0.));
#902 = CARTESIAN_POINT('',(6.064374160846,4.047180328124,0.));
#903 = CARTESIAN_POINT('',(5.91011253875,4.06663717116,0.));
#904 = CARTESIAN_POINT('',(5.623071012313,4.110200962308,0.));
#905 = CARTESIAN_POINT('',(5.49015444775,4.133388619956,0.));
#906 = CARTESIAN_POINT('',(5.358202615632,4.15964802166,0.));
#907 = CARTESIAN_POINT('',(5.227404571572,4.189210815598,0.));
#908 = CARTESIAN_POINT('',(5.098095802597,4.222387085073,0.));
#909 = CARTESIAN_POINT('',(4.970751485073,4.259552293749,0.));
#910 = CARTESIAN_POINT('',(4.846024265118,4.301198663008,0.));
#911 = CARTESIAN_POINT('',(4.642179275503,4.380251684633,0.));
#912 = CARTESIAN_POINT('',(4.561407798379,4.414714264891,0.));
#913 = CARTESIAN_POINT('',(4.482661005376,4.451886274894,0.));
#914 = CARTESIAN_POINT('',(4.406356145005,4.492119345924,0.));
#915 = CARTESIAN_POINT('',(4.333248639872,4.535762755686,0.));
#916 = CARTESIAN_POINT('',(4.264500933212,4.583190517364,0.));
#917 = CARTESIAN_POINT('',(4.201635549728,4.634758755706,0.));
#918 = CARTESIAN_POINT('',(4.127122537313,4.711201246245,0.));
#919 = CARTESIAN_POINT('',(4.108480776925,4.731997076913,0.));
#920 = CARTESIAN_POINT('',(4.091016447153,4.75337755882,0.));
#921 = CARTESIAN_POINT('',(4.07485654946,4.775339130713,0.));
#922 = CARTESIAN_POINT('',(4.060140492863,4.797865912057,0.));
#923 = CARTESIAN_POINT('',(4.047013605246,4.820927197487,0.));
#924 = CARTESIAN_POINT('',(4.035617472684,4.844474142578,0.));
#925 = CARTESIAN_POINT('',(4.019709850991,4.884427584083,0.));
#926 = CARTESIAN_POINT('',(4.014169092071,4.900604419014,0.));
#927 = CARTESIAN_POINT('',(4.009493163013,4.91694188038,0.));
#928 = CARTESIAN_POINT('',(4.005715362797,4.933413027839,0.));
#929 = CARTESIAN_POINT('',(4.002862612828,4.949988209486,0.));
#930 = CARTESIAN_POINT('',(4.000954113374,4.966635025329,0.));
#931 = CARTESIAN_POINT('',(4.,4.983318290756,0.));
#932 = CARTESIAN_POINT('',(4.,5.018310912588,0.));
#933 = CARTESIAN_POINT('',(4.001149594517,5.03662410442,0.));
#934 = CARTESIAN_POINT('',(4.003449189105,5.054888795282,0.));
#935 = CARTESIAN_POINT('',(4.006883965589,5.073058615112,0.));
#936 = CARTESIAN_POINT('',(4.011426131128,5.091091508365,0.));
#937 = CARTESIAN_POINT('',(4.017037167289,5.108949638374,0.));
#938 = CARTESIAN_POINT('',(4.023670079115,5.126599291711,0.));
#939 = CARTESIAN_POINT('',(4.043708061292,5.172496569392,0.));
#940 = CARTESIAN_POINT('',(4.058735854424,5.200341622052,0.));
#941 = CARTESIAN_POINT('',(4.076130849381,5.227441932051,0.));
#942 = CARTESIAN_POINT('',(4.09564526152,5.25373446206,0.));
#943 = CARTESIAN_POINT('',(4.117033419709,5.279187743098,0.));
#944 = CARTESIAN_POINT('',(4.140070160805,5.303794644988,0.));
#945 = CARTESIAN_POINT('',(4.164561894675,5.327567320074,0.));
#946 = CARTESIAN_POINT('',(4.219287675575,5.376305699315,0.));
#947 = CARTESIAN_POINT('',(4.249847287696,5.401053402875,0.));
#948 = CARTESIAN_POINT('',(4.281807467599,5.424820584628,0.));
#949 = CARTESIAN_POINT('',(4.314977554696,5.447651082471,0.));
#950 = CARTESIAN_POINT('',(4.349196789022,5.469589494274,0.));
#951 = CARTESIAN_POINT('',(4.384333163937,5.490681253716,0.));
#952 = CARTESIAN_POINT('',(4.420282278814,5.510972706124,0.));
#953 = CARTESIAN_POINT('',(4.577193278921,5.594546183086,0.));
#954 = CARTESIAN_POINT('',(4.704972654909,5.650312034626,0.));
#955 = CARTESIAN_POINT('',(4.83767281535,5.69962420116,0.));
#956 = CARTESIAN_POINT('',(4.973878343259,5.743257616504,0.));
#957 = CARTESIAN_POINT('',(5.112474222417,5.781972310007,0.));
#958 = CARTESIAN_POINT('',(5.252875252624,5.816260293921,0.));
#959 = CARTESIAN_POINT('',(5.394780103605,5.846578784896,0.));
#960 = CARTESIAN_POINT('',(5.717173946854,5.906540308029,0.));
#961 = CARTESIAN_POINT('',(5.897981449929,5.934064263959,0.));
#962 = CARTESIAN_POINT('',(6.080141298476,5.956438530748,0.));
#963 = CARTESIAN_POINT('',(6.263263212718,5.974019184274,0.));
#964 = CARTESIAN_POINT('',(6.447035387714,5.987046508381,0.));
#965 = CARTESIAN_POINT('',(6.631205947023,5.995681425379,0.));
#966 = CARTESIAN_POINT('',(6.815579453281,6.,0.));
#967 = CARTESIAN_POINT('',(7.156386467993,6.,0.));
#968 = CARTESIAN_POINT('',(7.312755742789,5.99689409993,0.));
#969 = CARTESIAN_POINT('',(7.46900063403,5.990684706999,0.));
#970 = CARTESIAN_POINT('',(7.624995141973,5.981329232184,0.));
#971 = CARTESIAN_POINT('',(7.780593643497,5.968748064491,0.));
#972 = CARTESIAN_POINT('',(7.935625839153,5.952819671876,0.));
#973 = CARTESIAN_POINT('',(8.08988746125,5.93336282884,0.));
#974 = CARTESIAN_POINT('',(8.376928987687,5.889799037692,0.));
#975 = CARTESIAN_POINT('',(8.50984555225,5.866611380044,0.));
#976 = CARTESIAN_POINT('',(8.641797384367,5.84035197834,0.));
#977 = CARTESIAN_POINT('',(8.772595428427,5.810789184403,0.));
#978 = CARTESIAN_POINT('',(8.901904197404,5.777612914927,0.));
#979 = CARTESIAN_POINT('',(9.029248514927,5.740447706251,0.));
#980 = CARTESIAN_POINT('',(9.153975734882,5.698801336992,0.));
#981 = CARTESIAN_POINT('',(9.357820724497,5.619748315367,0.));
#982 = CARTESIAN_POINT('',(9.438592201623,5.585285735109,0.));
#983 = CARTESIAN_POINT('',(9.51733899462,5.548113725106,0.));
#984 = CARTESIAN_POINT('',(9.593643854999,5.507880654077,0.));
#985 = CARTESIAN_POINT('',(9.666751360126,5.464237244313,0.));
#986 = CARTESIAN_POINT('',(9.735499066789,5.416809482636,0.));
#987 = CARTESIAN_POINT('',(9.798364450272,5.365241244294,0.));
#988 = CARTESIAN_POINT('',(9.866361833397,5.295483102089,0.));
#989 = CARTESIAN_POINT('',(9.879076030541,5.281690677704,0.));
#990 = CARTESIAN_POINT('',(9.891278980798,5.267637731172,0.));
#991 = CARTESIAN_POINT('',(9.902934105632,5.253324190312,0.));
#992 = CARTESIAN_POINT('',(9.914002236739,5.23875225265,0.));
#993 = CARTESIAN_POINT('',(9.924442445294,5.223926737242,0.));
#994 = CARTESIAN_POINT('',(9.9342128712,5.208855436506,0.));
#995 = CARTESIAN_POINT('',(9.956775972074,5.170731773108,0.));
#996 = CARTESIAN_POINT('',(9.968704707234,5.147382485358,0.));
#997 = CARTESIAN_POINT('',(9.978908553291,5.123551944449,0.));
#998 = CARTESIAN_POINT('',(9.987247199511,5.099304562064,0.));
#999 = CARTESIAN_POINT('',(9.993598011069,5.074720170313,0.));
#1000 = CARTESIAN_POINT('',(9.997866716431,5.049895267167,0.));
#1001 = CARTESIAN_POINT('',(10.,5.024944158971,0.));
#1002 = CARTESIAN_POINT('',(10.,5.,0.));
#1003 = PCURVE('',#98,#1004);
#1004 = DEFINITIONAL_REPRESENTATION('',(#1005),#1148);
#1005 = B_SPLINE_CURVE_WITH_KNOTS('',8,(#1006,#1007,#1008,#1009,#1010,
    #1011,#1012,#1013,#1014,#1015,#1016,#1017,#1018,#1019,#1020,#1021,
    #1022,#1023,#1024,#1025,#1026,#1027,#1028,#1029,#1030,#1031,#1032,
    #1033,#1034,#1035,#1036,#1037,#1038,#1039,#1040,#1041,#1042,#1043,
    #1044,#1045,#1046,#1047,#1048,#1049,#1050,#1051,#1052,#1053,#1054,
    #1055,#1056,#1057,#1058,#1059,#1060,#1061,#1062,#1063,#1064,#1065,
    #1066,#1067,#1068,#1069,#1070,#1071,#1072,#1073,#1074,#1075,#1076,
    #1077,#1078,#1079,#1080,#1081,#1082,#1083,#1084,#1085,#1086,#1087,
    #1088,#1089,#1090,#1091,#1092,#1093,#1094,#1095,#1096,#1097,#1098,
    #1099,#1100,#1101,#1102,#1103,#1104,#1105,#1106,#1107,#1108,#1109,
    #1110,#1111,#1112,#1113,#1114,#1115,#1116,#1117,#1118,#1119,#1120,
    #1121,#1122,#1123,#1124,#1125,#1126,#1127,#1128,#1129,#1130,#1131,
    #1132,#1133,#1134,#1135,#1136,#1137,#1138,#1139,#1140,#1141,#1142,
    #1143,#1144,#1145,#1146,#1147),.UNSPECIFIED.,.T.,.F.,(9,7,7,7,7,7,7,
    7,7,7,7,7,7,7,7,7,7,7,7,7,9),(0.,2.150805947797E-02,
    3.662939820139E-02,6.214184607609E-02,0.145755807884,0.250032811651,
    0.338458491989,0.41566816294,0.468413104703,0.487380186088,
    0.500038847227,0.513933804524,0.536666423765,0.562174803003,
    0.645775430346,0.750035804377,0.838447382894,0.915644740714,
    0.968381270896,0.981075624668,1.),.UNSPECIFIED.);
#1006 = CARTESIAN_POINT('',(10.,5.));
#1007 = CARTESIAN_POINT('',(10.,4.971657616206));
#1008 = CARTESIAN_POINT('',(9.997245870258,4.943305483135));
#1009 = CARTESIAN_POINT('',(9.991734236317,4.915141611305));
#1010 = CARTESIAN_POINT('',(9.983555530785,4.887330069626));
#1011 = CARTESIAN_POINT('',(9.972864572075,4.860003759001));
#1012 = CARTESIAN_POINT('',(9.959855999723,4.833267214872));
#1013 = CARTESIAN_POINT('',(9.944744566286,4.807199438734));
#1014 = CARTESIAN_POINT('',(9.915802379888,4.764039472446));
#1015 = CARTESIAN_POINT('',(9.902918332208,4.746572618162));
#1016 = CARTESIAN_POINT('',(9.889167972647,4.729467990444));
#1017 = CARTESIAN_POINT('',(9.874619061089,4.712732226087));
#1018 = CARTESIAN_POINT('',(9.859336019884,4.696367440924));
#1019 = CARTESIAN_POINT('',(9.843378666293,4.680371866741));
#1020 = CARTESIAN_POINT('',(9.826800944936,4.664740488209));
#1021 = CARTESIAN_POINT('',(9.780712324425,4.623694300685));
#1022 = CARTESIAN_POINT('',(9.750152712304,4.598946597125));
#1023 = CARTESIAN_POINT('',(9.718192532401,4.575179415372));
#1024 = CARTESIAN_POINT('',(9.685022445304,4.552348917528));
#1025 = CARTESIAN_POINT('',(9.650803210978,4.530410505726));
#1026 = CARTESIAN_POINT('',(9.615666836063,4.509318746284));
#1027 = CARTESIAN_POINT('',(9.579717721185,4.489027293876));
#1028 = CARTESIAN_POINT('',(9.422806721079,4.405453816913));
#1029 = CARTESIAN_POINT('',(9.295027345092,4.349687965374));
#1030 = CARTESIAN_POINT('',(9.162327184649,4.300375798841));
#1031 = CARTESIAN_POINT('',(9.02612165674,4.256742383494));
#1032 = CARTESIAN_POINT('',(8.887525777585,4.218027689995));
#1033 = CARTESIAN_POINT('',(8.747124747374,4.183739706078));
#1034 = CARTESIAN_POINT('',(8.605219896396,4.153421215104));
#1035 = CARTESIAN_POINT('',(8.282826053145,4.093459691971));
#1036 = CARTESIAN_POINT('',(8.102018550072,4.065935736041));
#1037 = CARTESIAN_POINT('',(7.919858701522,4.043561469252));
#1038 = CARTESIAN_POINT('',(7.736736787282,4.025980815726));
#1039 = CARTESIAN_POINT('',(7.552964612287,4.012953491619));
#1040 = CARTESIAN_POINT('',(7.368794052976,4.004318574621));
#1041 = CARTESIAN_POINT('',(7.184420546719,4.));
#1042 = CARTESIAN_POINT('',(6.843613532007,4.));
#1043 = CARTESIAN_POINT('',(6.687244257211,4.00310590007));
#1044 = CARTESIAN_POINT('',(6.53099936597,4.009315293001));
#1045 = CARTESIAN_POINT('',(6.375004858028,4.018670767816));
#1046 = CARTESIAN_POINT('',(6.219406356503,4.031251935509));
#1047 = CARTESIAN_POINT('',(6.064374160846,4.047180328124));
#1048 = CARTESIAN_POINT('',(5.91011253875,4.06663717116));
#1049 = CARTESIAN_POINT('',(5.623071012313,4.110200962308));
#1050 = CARTESIAN_POINT('',(5.49015444775,4.133388619956));
#1051 = CARTESIAN_POINT('',(5.358202615632,4.15964802166));
#1052 = CARTESIAN_POINT('',(5.227404571572,4.189210815598));
#1053 = CARTESIAN_POINT('',(5.098095802597,4.222387085073));
#1054 = CARTESIAN_POINT('',(4.970751485073,4.259552293749));
#1055 = CARTESIAN_POINT('',(4.846024265118,4.301198663008));
#1056 = CARTESIAN_POINT('',(4.642179275503,4.380251684633));
#1057 = CARTESIAN_POINT('',(4.561407798379,4.414714264891));
#1058 = CARTESIAN_POINT('',(4.482661005376,4.451886274894));
#1059 = CARTESIAN_POINT('',(4.406356145005,4.492119345924));
#1060 = CARTESIAN_POINT('',(4.333248639872,4.535762755686));
#1061 = CARTESIAN_POINT('',(4.264500933212,4.583190517364));
#1062 = CARTESIAN_POINT('',(4.201635549728,4.634758755706));
#1063 = CARTESIAN_POINT('',(4.127122537313,4.711201246245));
#1064 = CARTESIAN_POINT('',(4.108480776925,4.731997076913));
#1065 = CARTESIAN_POINT('',(4.091016447153,4.75337755882));
#1066 = CARTESIAN_POINT('',(4.07485654946,4.775339130713));
#1067 = CARTESIAN_POINT('',(4.060140492863,4.797865912057));
#1068 = CARTESIAN_POINT('',(4.047013605246,4.820927197487));
#1069 = CARTESIAN_POINT('',(4.035617472684,4.844474142578));
#1070 = CARTESIAN_POINT('',(4.019709850991,4.884427584083));
#1071 = CARTESIAN_POINT('',(4.014169092071,4.900604419014));
#1072 = CARTESIAN_POINT('',(4.009493163013,4.91694188038));
#1073 = CARTESIAN_POINT('',(4.005715362797,4.933413027839));
#1074 = CARTESIAN_POINT('',(4.002862612828,4.949988209486));
#1075 = CARTESIAN_POINT('',(4.000954113374,4.966635025329));
#1076 = CARTESIAN_POINT('',(4.,4.983318290756));
#1077 = CARTESIAN_POINT('',(4.,5.018310912588));
#1078 = CARTESIAN_POINT('',(4.001149594517,5.03662410442));
#1079 = CARTESIAN_POINT('',(4.003449189105,5.054888795282));
#1080 = CARTESIAN_POINT('',(4.006883965589,5.073058615112));
#1081 = CARTESIAN_POINT('',(4.011426131128,5.091091508365));
#1082 = CARTESIAN_POINT('',(4.017037167289,5.108949638374));
#1083 = CARTESIAN_POINT('',(4.023670079115,5.126599291711));
#1084 = CARTESIAN_POINT('',(4.043708061292,5.172496569392));
#1085 = CARTESIAN_POINT('',(4.058735854424,5.200341622052));
#1086 = CARTESIAN_POINT('',(4.076130849381,5.227441932051));
#1087 = CARTESIAN_POINT('',(4.09564526152,5.25373446206));
#1088 = CARTESIAN_POINT('',(4.117033419709,5.279187743098));
#1089 = CARTESIAN_POINT('',(4.140070160805,5.303794644988));
#1090 = CARTESIAN_POINT('',(4.164561894675,5.327567320074));
#1091 = CARTESIAN_POINT('',(4.219287675575,5.376305699315));
#1092 = CARTESIAN_POINT('',(4.249847287696,5.401053402875));
#1093 = CARTESIAN_POINT('',(4.281807467599,5.424820584628));
#1094 = CARTESIAN_POINT('',(4.314977554696,5.447651082471));
#1095 = CARTESIAN_POINT('',(4.349196789022,5.469589494274));
#1096 = CARTESIAN_POINT('',(4.384333163937,5.490681253716));
#1097 = CARTESIAN_POINT('',(4.420282278814,5.510972706124));
#1098 = CARTESIAN_POINT('',(4.577193278921,5.594546183086));
#1099 = CARTESIAN_POINT('',(4.704972654909,5.650312034626));
#1100 = CARTESIAN_POINT('',(4.83767281535,5.69962420116));
#1101 = CARTESIAN_POINT('',(4.973878343259,5.743257616504));
#1102 = CARTESIAN_POINT('',(5.112474222417,5.781972310007));
#1103 = CARTESIAN_POINT('',(5.252875252624,5.816260293921));
#1104 = CARTESIAN_POINT('',(5.394780103605,5.846578784896));
#1105 = CARTESIAN_POINT('',(5.717173946854,5.906540308029));
#1106 = CARTESIAN_POINT('',(5.897981449929,5.934064263959));
#1107 = CARTESIAN_POINT('',(6.080141298476,5.956438530748));
#1108 = CARTESIAN_POINT('',(6.263263212718,5.974019184274));
#1109 = CARTESIAN_POINT('',(6.447035387714,5.987046508381));
#1110 = CARTESIAN_POINT('',(6.631205947023,5.995681425379));
#1111 = CARTESIAN_POINT('',(6.815579453281,6.));
#1112 = CARTESIAN_POINT('',(7.156386467993,6.));
#1113 = CARTESIAN_POINT('',(7.312755742789,5.99689409993));
#1114 = CARTESIAN_POINT('',(7.46900063403,5.990684706999));
#1115 = CARTESIAN_POINT('',(7.624995141973,5.981329232184));
#1116 = CARTESIAN_POINT('',(7.780593643497,5.968748064491));
#1117 = CARTESIAN_POINT('',(7.935625839153,5.952819671876));
#1118 = CARTESIAN_POINT('',(8.08988746125,5.93336282884));
#1119 = CARTESIAN_POINT('',(8.376928987687,5.889799037692));
#1120 = CARTESIAN_POINT('',(8.50984555225,5.866611380044));
#1121 = CARTESIAN_POINT('',(8.641797384367,5.84035197834));
#1122 = CARTESIAN_POINT('',(8.772595428427,5.810789184403));
#1123 = CARTESIAN_POINT('',(8.901904197404,5.777612914927));
#1124 = CARTESIAN_POINT('',(9.029248514927,5.740447706251));
#1125 = CARTESIAN_POINT('',(9.153975734882,5.698801336992));
#1126 = CARTESIAN_POINT('',(9.357820724497,5.619748315367));
#1127 = CARTESIAN_POINT('',(9.438592201623,5.585285735109));
#1128 = CARTESIAN_POINT('',(9.51733899462,5.548113725106));
#1129 = CARTESIAN_POINT('',(9.593643854999,5.507880654077));
#1130 = CARTESIAN_POINT('',(9.666751360126,5.464237244313));
#1131 = CARTESIAN_POINT('',(9.735499066789,5.416809482636));
#1132 = CARTESIAN_POINT('',(9.798364450272,5.365241244294));
#1133 = CARTESIAN_POINT('',(9.866361833397,5.295483102089));
#1134 = CARTESIAN_POINT('',(9.879076030541,5.281690677704));
#1135 = CARTESIAN_POINT('',(9.891278980798,5.267637731172));
#1136 = CARTESIAN_POINT('',(9.902934105632,5.253324190312));
#1137 = CARTESIAN_POINT('',(9.914002236739,5.23875225265));
#1138 = CARTESIAN_POINT('',(9.924442445294,5.223926737242));
#1139 = CARTESIAN_POINT('',(9.9342128712,5.208855436506));
#1140 = CARTESIAN_POINT('',(9.956775972074,5.170731773108));
#1141 = CARTESIAN_POINT('',(9.968704707234,5.147382485358));
#1142 = CARTESIAN_POINT('',(9.978908553291,5.123551944449));
#1143 = CARTESIAN_POINT('',(9.987247199511,5.099304562064));
#1144 = CARTESIAN_POINT('',(9.993598011069,5.074720170313));
#1145 = CARTESIAN_POINT('',(9.997866716431,5.049895267167));
#1146 = CARTESIAN_POINT('',(10.,5.024944158971));
#1147 = CARTESIAN_POINT('',(10.,5.));
#1148 = ( GEOMETRIC_REPRESENTATION_CONTEXT(2) 
PARAMETRIC_REPRESENTATION_CONTEXT() REPRESENTATION_CONTEXT('2D SPACE',''
  ) );
#1149 = PCURVE('',#560,#1150);
#1150 = DEFINITIONAL_REPRESENTATION('',(#1151),#1294);
#1151 = B_SPLINE_CURVE_WITH_KNOTS('',8,(#1152,#1153,#1154,#1155,#1156,
    #1157,#1158,#1159,#1160,#1161,#1162,#1163,#1164,#1165,#1166,#1167,
    #1168,#1169,#1170,#1171,#1172,#1173,#1174,#1175,#1176,#1177,#1178,
    #1179,#1180,#1181,#1182,#1183,#1184,#1185,#1186,#1187,#1188,#1189,
    #1190,#1191,#1192,#1193,#1194,#1195,#1196,#1197,#1198,#1199,#1200,
    #1201,#1202,#1203,#1204,#1205,#1206,#1207,#1208,#1209,#1210,#1211,
    #1212,#1213,#1214,#1215,#1216,#1217,#1218,#1219,#1220,#1221,#1222,
    #1223,#1224,#1225,#1226,#1227,#1228,#1229,#1230,#1231,#1232,#1233,
    #1234,#1235,#1236,#1237,#1238,#1239,#1240,#1241,#1242,#1243,#1244,
    #1245,#1246,#1247,#1248,#1249,#1250,#1251,#1252,#1253,#1254,#1255,
    #1256,#1257,#1258,#1259,#1260,#1261,#1262,#1263,#1264,#1265,#1266,
    #1267,#1268,#1269,#1270,#1271,#1272,#1273,#1274,#1275,#1276,#1277,
    #1278,#1279,#1280,#1281,#1282,#1283,#1284,#1285,#1286,#1287,#1288,
    #1289,#1290,#1291,#1292,#1293),.UNSPECIFIED.,.F.,.F.,(9,7,7,7,7,7,7,
    7,7,7,7,7,7,7,7,7,7,7,7,7,9),(0.,2.150805947797E-02,
    3.662939820139E-02,6.214184607609E-02,0.145755807884,0.250032811651,
    0.338458491989,0.41566816294,0.468413104703,0.487380186088,
    0.500038847227,0.513933804524,0.536666423765,0.562174803003,
    0.645775430346,0.750035804377,0.838447382894,0.915644740714,
    0.968381270896,0.981075624668,1.),.UNSPECIFIED.);
#1152 = CARTESIAN_POINT('',(6.28318530718,-1.));
#1153 = CARTESIAN_POINT('',(6.254842923385,-1.));
#1154 = CARTESIAN_POINT('',(6.226490809689,-1.));
#1155 = CARTESIAN_POINT('',(6.198292196129,-1.));
#1156 = CARTESIAN_POINT('',(6.170376499514,-1.));
#1157 = CARTESIAN_POINT('',(6.142845966207,-1.));
#1158 = CARTESIAN_POINT('',(6.115780674543,-1.));
#1159 = CARTESIAN_POINT('',(6.089241896902,-1.));
#1160 = CARTESIAN_POINT('',(6.045016848239,-1.));
#1161 = CARTESIAN_POINT('',(6.027033811423,-1.));
#1162 = CARTESIAN_POINT('',(6.00933197579,-1.));
#1163 = CARTESIAN_POINT('',(5.991914687701,-1.));
#1164 = CARTESIAN_POINT('',(5.974781784933,-1.));
#1165 = CARTESIAN_POINT('',(5.957930006541,-1.));
#1166 = CARTESIAN_POINT('',(5.941353402721,-1.));
#1167 = CARTESIAN_POINT('',(5.897526386024,-1.));
#1168 = CARTESIAN_POINT('',(5.870778129255,-1.));
#1169 = CARTESIAN_POINT('',(5.844752939302,-1.));
#1170 = CARTESIAN_POINT('',(5.819407531024,-1.));
#1171 = CARTESIAN_POINT('',(5.794700075556,-1.));
#1172 = CARTESIAN_POINT('',(5.770588906658,-1.));
#1173 = CARTESIAN_POINT('',(5.747031227065,-1.));
#1174 = CARTESIAN_POINT('',(5.648440154436,-1.));
#1175 = CARTESIAN_POINT('',(5.578572151535,-1.));
#1176 = CARTESIAN_POINT('',(5.512650778757,-1.));
#1177 = CARTESIAN_POINT('',(5.450011204153,-1.));
#1178 = CARTESIAN_POINT('',(5.389993551386,-1.));
#1179 = CARTESIAN_POINT('',(5.33217081091,-1.));
#1180 = CARTESIAN_POINT('',(5.276090793302,-1.));
#1181 = CARTESIAN_POINT('',(5.153029720625,-1.));
#1182 = CARTESIAN_POINT('',(5.086987670965,-1.));
#1183 = CARTESIAN_POINT('',(5.02257683636,-1.));
#1184 = CARTESIAN_POINT('',(4.959382332233,-1.));
#1185 = CARTESIAN_POINT('',(4.897065273112,-1.));
#1186 = CARTESIAN_POINT('',(4.835320066041,-1.));
#1187 = CARTESIAN_POINT('',(4.773862495958,-1.));
#1188 = CARTESIAN_POINT('',(4.66026015772,-1.));
#1189 = CARTESIAN_POINT('',(4.608136649862,-1.));
#1190 = CARTESIAN_POINT('',(4.55584017569,-1.));
#1191 = CARTESIAN_POINT('',(4.50319419963,-1.));
#1192 = CARTESIAN_POINT('',(4.450019028943,-1.));
#1193 = CARTESIAN_POINT('',(4.396118385023,-1.));
#1194 = CARTESIAN_POINT('',(4.341257448688,-1.));
#1195 = CARTESIAN_POINT('',(4.236126275073,-1.));
#1196 = CARTESIAN_POINT('',(4.186195617933,-1.));
#1197 = CARTESIAN_POINT('',(4.135103193385,-1.));
#1198 = CARTESIAN_POINT('',(4.082609285575,-1.));
#1199 = CARTESIAN_POINT('',(4.028423600462,-1.));
#1200 = CARTESIAN_POINT('',(3.972209391427,-1.));
#1201 = CARTESIAN_POINT('',(3.913525571137,-1.));
#1202 = CARTESIAN_POINT('',(3.809283757259,-1.));
#1203 = CARTESIAN_POINT('',(3.765598715565,-1.));
#1204 = CARTESIAN_POINT('',(3.720183958107,-1.));
#1205 = CARTESIAN_POINT('',(3.672714459373,-1.));
#1206 = CARTESIAN_POINT('',(3.622891824838,-1.));
#1207 = CARTESIAN_POINT('',(3.570389444757,-1.));
#1208 = CARTESIAN_POINT('',(3.514869593825,-1.));
#1209 = CARTESIAN_POINT('',(3.434493202696,-1.));
#1210 = CARTESIAN_POINT('',(3.412795000463,-1.));
#1211 = CARTESIAN_POINT('',(3.390647351808,-1.));
#1212 = CARTESIAN_POINT('',(3.368049650098,-1.));
#1213 = CARTESIAN_POINT('',(3.34501124094,-1.));
#1214 = CARTESIAN_POINT('',(3.321553180245,-1.));
#1215 = CARTESIAN_POINT('',(3.297711151895,-1.));
#1216 = CARTESIAN_POINT('',(3.257407375092,-1.));
#1217 = CARTESIAN_POINT('',(3.241128151246,-1.));
#1218 = CARTESIAN_POINT('',(3.22472125976,-1.));
#1219 = CARTESIAN_POINT('',(3.208207942915,-1.));
#1220 = CARTESIAN_POINT('',(3.191611520893,-1.));
#1221 = CARTESIAN_POINT('',(3.174957613657,-1.));
#1222 = CARTESIAN_POINT('',(3.158274362834,-1.));
#1223 = CARTESIAN_POINT('',(3.123281741002,-1.));
#1224 = CARTESIAN_POINT('',(3.10496857591,-1.));
#1225 = CARTESIAN_POINT('',(3.086694497267,-1.));
#1226 = CARTESIAN_POINT('',(3.068496577224,-1.));
#1227 = CARTESIAN_POINT('',(3.050407992621,-1.));
#1228 = CARTESIAN_POINT('',(3.03245839648,-1.));
#1229 = CARTESIAN_POINT('',(3.014674289495,-1.));
#1230 = CARTESIAN_POINT('',(2.968293544429,-1.));
#1231 = CARTESIAN_POINT('',(2.940017392892,-1.));
#1232 = CARTESIAN_POINT('',(2.912328104995,-1.));
#1233 = CARTESIAN_POINT('',(2.885269328436,-1.));
#1234 = CARTESIAN_POINT('',(2.858859952774,-1.));
#1235 = CARTESIAN_POINT('',(2.833100062003,-1.));
#1236 = CARTESIAN_POINT('',(2.807974077461,-1.));
#1237 = CARTESIAN_POINT('',(2.755933732434,-1.));
#1238 = CARTESIAN_POINT('',(2.729185475665,-1.));
#1239 = CARTESIAN_POINT('',(2.703160285712,-1.));
#1240 = CARTESIAN_POINT('',(2.677814877434,-1.));
#1241 = CARTESIAN_POINT('',(2.653107421967,-1.));
#1242 = CARTESIAN_POINT('',(2.628996253068,-1.));
#1243 = CARTESIAN_POINT('',(2.605438573475,-1.));
#1244 = CARTESIAN_POINT('',(2.506847500847,-1.));
#1245 = CARTESIAN_POINT('',(2.436979497946,-1.));
#1246 = CARTESIAN_POINT('',(2.371058125164,-1.));
#1247 = CARTESIAN_POINT('',(2.308418550569,-1.));
#1248 = CARTESIAN_POINT('',(2.248400897792,-1.));
#1249 = CARTESIAN_POINT('',(2.190578157323,-1.));
#1250 = CARTESIAN_POINT('',(2.134498139712,-1.));
#1251 = CARTESIAN_POINT('',(2.011437067036,-1.));
#1252 = CARTESIAN_POINT('',(1.945395017375,-1.));
#1253 = CARTESIAN_POINT('',(1.880984182771,-1.));
#1254 = CARTESIAN_POINT('',(1.817789678643,-1.));
#1255 = CARTESIAN_POINT('',(1.755472619522,-1.));
#1256 = CARTESIAN_POINT('',(1.693727412452,-1.));
#1257 = CARTESIAN_POINT('',(1.632269842368,-1.));
#1258 = CARTESIAN_POINT('',(1.518667504131,-1.));
#1259 = CARTESIAN_POINT('',(1.466543996272,-1.));
#1260 = CARTESIAN_POINT('',(1.4142475221,-1.));
#1261 = CARTESIAN_POINT('',(1.36160154604,-1.));
#1262 = CARTESIAN_POINT('',(1.308426375354,-1.));
#1263 = CARTESIAN_POINT('',(1.254525731433,-1.));
#1264 = CARTESIAN_POINT('',(1.199664795099,-1.));
#1265 = CARTESIAN_POINT('',(1.094533621483,-1.));
#1266 = CARTESIAN_POINT('',(1.044602964343,-1.));
#1267 = CARTESIAN_POINT('',(0.993510539795,-1.));
#1268 = CARTESIAN_POINT('',(0.941016631985,-1.));
#1269 = CARTESIAN_POINT('',(0.886830946873,-1.));
#1270 = CARTESIAN_POINT('',(0.830616737837,-1.));
#1271 = CARTESIAN_POINT('',(0.771932917547,-1.));
#1272 = CARTESIAN_POINT('',(0.66769110367,-1.));
#1273 = CARTESIAN_POINT('',(0.624006061975,-1.));
#1274 = CARTESIAN_POINT('',(0.578591304517,-1.));
#1275 = CARTESIAN_POINT('',(0.531121805785,-1.));
#1276 = CARTESIAN_POINT('',(0.481299171246,-1.));
#1277 = CARTESIAN_POINT('',(0.428796791168,-1.));
#1278 = CARTESIAN_POINT('',(0.373276940235,-1.));
#1279 = CARTESIAN_POINT('',(0.299928888873,-1.));
#1280 = CARTESIAN_POINT('',(0.285501869488,-1.));
#1281 = CARTESIAN_POINT('',(0.270875369853,-1.));
#1282 = CARTESIAN_POINT('',(0.256048167314,-1.));
#1283 = CARTESIAN_POINT('',(0.241020910253,-1.));
#1284 = CARTESIAN_POINT('',(0.225796374433,-1.));
#1285 = CARTESIAN_POINT('',(0.210379719339,-1.));
#1286 = CARTESIAN_POINT('',(0.171521262632,-1.));
#1287 = CARTESIAN_POINT('',(0.147843904479,-1.));
#1288 = CARTESIAN_POINT('',(0.123786482466,-1.));
#1289 = CARTESIAN_POINT('',(9.93992214372E-02,-1.));
#1290 = CARTESIAN_POINT('',(7.474383003793E-02,-1.));
#1291 = CARTESIAN_POINT('',(4.989526080459E-02,-1.));
#1292 = CARTESIAN_POINT('',(2.49441589711E-02,-1.));
#1293 = CARTESIAN_POINT('',(0.,-1.));
#1294 = ( GEOMETRIC_REPRESENTATION_CONTEXT(2) 
PARAMETRIC_REPRESENTATION_CONTEXT() REPRESENTATION_CONTEXT('2D SPACE',''
  ) );
#1295 = ADVANCED_FACE('',(#1296),#71,.F.);
#1296 = FACE_BOUND('',#1297,.F.);
#1297 = EDGE_LOOP('',(#1298,#1319,#1320,#1321));
#1298 = ORIENTED_EDGE('',*,*,#1299,.F.);
#1299 = EDGE_CURVE('',#768,#141,#1300,.T.);
#1300 = SURFACE_CURVE('',#1301,(#1305,#1312),.PCURVE_S1.);
#1301 = LINE('',#1302,#1303);
#1302 = CARTESIAN_POINT('',(2.,2.,-1.));
#1303 = VECTOR('',#1304,1.);
#1304 = DIRECTION('',(0.,0.,1.));
#1305 = PCURVE('',#71,#1306);
#1306 = DEFINITIONAL_REPRESENTATION('',(#1307),#1311);
#1307 = LINE('',#1308,#1309);
#1308 = CARTESIAN_POINT('',(0.,3.));
#1309 = VECTOR('',#1310,1.);
#1310 = DIRECTION('',(1.,0.));
#1311 = ( GEOMETRIC_REPRESENTATION_CONTEXT(2) 
PARAMETRIC_REPRESENTATION_CONTEXT() REPRESENTATION_CONTEXT('2D SPACE',''
  ) );
#1312 = PCURVE('',#176,#1313);
#1313 = DEFINITIONAL_REPRESENTATION('',(#1314),#1318);
#1314 = LINE('',#1315,#1316);
#1315 = CARTESIAN_POINT('',(0.,-3.));
#1316 = VECTOR('',#1317,1.);
#1317 = DIRECTION('',(1.,0.));
#1318 = ( GEOMETRIC_REPRESENTATION_CONTEXT(2) 
PARAMETRIC_REPRESENTATION_CONTEXT() REPRESENTATION_CONTEXT('2D SPACE',''
  ) );
#1319 = ORIENTED_EDGE('',*,*,#767,.T.);
#1320 = ORIENTED_EDGE('',*,*,#56,.T.);
#1321 = ORIENTED_EDGE('',*,*,#140,.F.);
#1322 = ADVANCED_FACE('',(#1323),#176,.F.);
#1323 = FACE_BOUND('',#1324,.F.);
#1324 = EDGE_LOOP('',(#1325,#1326,#1327,#1346));
#1325 = ORIENTED_EDGE('',*,*,#1299,.T.);
#1326 = ORIENTED_EDGE('',*,*,#161,.F.);
#1327 = ORIENTED_EDGE('',*,*,#1328,.T.);
#1328 = EDGE_CURVE('',#162,#789,#1329,.T.);
#1329 = SURFACE_CURVE('',#1330,(#1334,#1340),.PCURVE_S1.);
#1330 = LINE('',#1331,#1332);
#1331 = CARTESIAN_POINT('',(2.,0.,-0.5));
#1332 = VECTOR('',#1333,1.);
#1333 = DIRECTION('',(-0.,0.,-1.));
#1334 = PCURVE('',#176,#1335);
#1335 = DEFINITIONAL_REPRESENTATION('',(#1336),#1339);
#1336 = B_SPLINE_CURVE_WITH_KNOTS('',1,(#1337,#1338),.UNSPECIFIED.,.F.,
  .F.,(2,2),(-4.5,-0.5),.PIECEWISE_BEZIER_KNOTS.);
#1337 = CARTESIAN_POINT('',(5.,-1.));
#1338 = CARTESIAN_POINT('',(1.,-1.));
#1339 = ( GEOMETRIC_REPRESENTATION_CONTEXT(2) 
PARAMETRIC_REPRESENTATION_CONTEXT() REPRESENTATION_CONTEXT('2D SPACE',''
  ) );
#1340 = PCURVE('',#203,#1341);
#1341 = DEFINITIONAL_REPRESENTATION('',(#1342),#1345);
#1342 = B_SPLINE_CURVE_WITH_KNOTS('',1,(#1343,#1344),.UNSPECIFIED.,.F.,
  .F.,(2,2),(-4.5,-0.5),.PIECEWISE_BEZIER_KNOTS.);
#1343 = CARTESIAN_POINT('',(4.,2.));
#1344 = CARTESIAN_POINT('',(0.,2.));
#1345 = ( GEOMETRIC_REPRESENTATION_CONTEXT(2) 
PARAMETRIC_REPRESENTATION_CONTEXT() REPRESENTATION_CONTEXT('2D SPACE',''
  ) );
#1346 = ORIENTED_EDGE('',*,*,#788,.T.);
#1347 = ADVANCED_FACE('',(#1348),#231,.T.);
#1348 = FACE_BOUND('',#1349,.T.);
#1349 = EDGE_LOOP('',(#1350,#1371,#1372,#1373));
#1350 = ORIENTED_EDGE('',*,*,#1351,.F.);
#1351 = EDGE_CURVE('',#810,#188,#1352,.T.);
#1352 = SURFACE_CURVE('',#1353,(#1357,#1364),.PCURVE_S1.);
#1353 = LINE('',#1354,#1355);
#1354 = CARTESIAN_POINT('',(14.,0.,0.));
#1355 = VECTOR('',#1356,1.);
#1356 = DIRECTION('',(0.,0.,1.));
#1357 = PCURVE('',#231,#1358);
#1358 = DEFINITIONAL_REPRESENTATION('',(#1359),#1363);
#1359 = LINE('',#1360,#1361);
#1360 = CARTESIAN_POINT('',(0.,0.));
#1361 = VECTOR('',#1362,1.);
#1362 = DIRECTION('',(1.,0.));
#1363 = ( GEOMETRIC_REPRESENTATION_CONTEXT(2) 
PARAMETRIC_REPRESENTATION_CONTEXT() REPRESENTATION_CONTEXT('2D SPACE',''
  ) );
#1364 = PCURVE('',#203,#1365);
#1365 = DEFINITIONAL_REPRESENTATION('',(#1366),#1370);
#1366 = LINE('',#1367,#1368);
#1367 = CARTESIAN_POINT('',(0.,14.));
#1368 = VECTOR('',#1369,1.);
#1369 = DIRECTION('',(1.,0.));
#1370 = ( GEOMETRIC_REPRESENTATION_CONTEXT(2) 
PARAMETRIC_REPRESENTATION_CONTEXT() REPRESENTATION_CONTEXT('2D SPACE',''
  ) );
#1371 = ORIENTED_EDGE('',*,*,#832,.T.);
#1372 = ORIENTED_EDGE('',*,*,#742,.T.);
#1373 = ORIENTED_EDGE('',*,*,#215,.F.);
#1374 = ADVANCED_FACE('',(#1375),#203,.F.);
#1375 = FACE_BOUND('',#1376,.F.);
#1376 = EDGE_LOOP('',(#1377,#1378,#1379,#1380));
#1377 = ORIENTED_EDGE('',*,*,#809,.F.);
#1378 = ORIENTED_EDGE('',*,*,#1328,.F.);
#1379 = ORIENTED_EDGE('',*,*,#187,.T.);
#1380 = ORIENTED_EDGE('',*,*,#1351,.F.);
#1381 = ADVANCED_FACE('',(#1382),#560,.T.);
#1382 = FACE_BOUND('',#1383,.T.);
#1383 = EDGE_LOOP('',(#1384,#1385,#1406,#1407));
#1384 = ORIENTED_EDGE('',*,*,#856,.T.);
#1385 = ORIENTED_EDGE('',*,*,#1386,.T.);
#1386 = EDGE_CURVE('',#857,#267,#1387,.T.);
#1387 = SEAM_CURVE('',#1388,(#1392,#1399),.PCURVE_S1.);
#1388 = LINE('',#1389,#1390);
#1389 = CARTESIAN_POINT('',(10.,5.,-1.));
#1390 = VECTOR('',#1391,1.);
#1391 = DIRECTION('',(0.,0.,1.));
#1392 = PCURVE('',#560,#1393);
#1393 = DEFINITIONAL_REPRESENTATION('',(#1394),#1398);
#1394 = LINE('',#1395,#1396);
#1395 = CARTESIAN_POINT('',(6.28318530718,0.));
#1396 = VECTOR('',#1397,1.);
#1397 = DIRECTION('',(0.,-1.));
#1398 = ( GEOMETRIC_REPRESENTATION_CONTEXT(2) 
PARAMETRIC_REPRESENTATION_CONTEXT() REPRESENTATION_CONTEXT('2D SPACE',''
  ) );
#1399 = PCURVE('',#560,#1400);
#1400 = DEFINITIONAL_REPRESENTATION('',(#1401),#1405);
#1401 = LINE('',#1402,#1403);
#1402 = CARTESIAN_POINT('',(0.,0.));
#1403 = VECTOR('',#1404,1.);
#1404 = DIRECTION('',(0.,-1.));
#1405 = ( GEOMETRIC_REPRESENTATION_CONTEXT(2) 
PARAMETRIC_REPRESENTATION_CONTEXT() REPRESENTATION_CONTEXT('2D SPACE',''
  ) );
#1406 = ORIENTED_EDGE('',*,*,#266,.F.);
#1407 = ORIENTED_EDGE('',*,*,#1386,.F.);
#1408 = ( GEOMETRIC_REPRESENTATION_CONTEXT(3) 
GLOBAL_UNCERTAINTY_ASSIGNED_CONTEXT((#1412)) 
GLOBAL_UNIT_ASSIGNED_CONTEXT((#1409,#1410,#1411)) REPRESENTATION_CONTEXT
('Context #1','3D Context with UNIT and UNCERTAINTY') );
#1409 = ( LENGTH_UNIT() NAMED_UNIT(*) SI_UNIT(.MILLI.,.METRE.) );
#1410 = ( NAMED_UNIT(*) PLANE_ANGLE_UNIT() SI_UNIT($,.RADIAN.) );
#1411 = ( NAMED_UNIT(*) SI_UNIT($,.STERADIAN.) SOLID_ANGLE_UNIT() );
#1412 = UNCERTAINTY_MEASURE_WITH_UNIT(LENGTH_MEASURE(1.E-06),#1409,
  'distance_accuracy_value','confusion accuracy');
#1413 = PRODUCT_RELATED_PRODUCT_CATEGORY('part',$,(#7));
ENDSEC;
END-ISO-10303-21;
